<?xml version="1.0" encoding="utf-8"?>
<!-- Generator: Adobe Illustrator 27.5.0, SVG Export Plug-In . SVG Version: 6.00 Build 0)  -->
<svg version="1.1" xmlns="http://www.w3.org/2000/svg" xmlns:xlink="http://www.w3.org/1999/xlink" x="0px" y="0px"
	 viewBox="0 0 750 500" style="enable-background:new 0 0 750 500;" xml:space="preserve">
<g id="BACKGROUND">
	<g>
		<rect id="XMLID_1_" style="fill:#4F3B82;" width="750" height="500"/>
		<g>
			<defs>
				<rect id="XMLID_2_" width="750" height="500"/>
			</defs>
			<clipPath id="XMLID_00000042739115723531032290000001903217415763592874_">
				<use xlink:href="#XMLID_2_"  style="overflow:visible;"/>
			</clipPath>
			<path style="clip-path:url(#XMLID_00000042739115723531032290000001903217415763592874_);fill:#9848B5;" d="M487.777,13.257
				c0,0-134.203-2.254-189.847-1.538c-55.646,0.717-168.728,8.963-168.728,8.963s122.508-1.281,168.149-2.666
				C342.993,16.633,487.777,13.257,487.777,13.257z"/>
			<path style="clip-path:url(#XMLID_00000042739115723531032290000001903217415763592874_);fill:#9848B5;" d="M487.777,17.809
				c0,0-125.28-2.445-177.223-1.809c-51.943,0.638-157.493,8.723-157.493,8.723s114.358-1.106,156.963-2.426
				C352.627,20.978,487.777,17.809,487.777,17.809z"/>
			<g style="clip-path:url(#XMLID_00000042739115723531032290000001903217415763592874_);">
				<g>
					<path style="fill:#9848B5;" d="M733.12,224.837c-5.361,29.098-14.882,57.273-13.56,87.035
						c1.306,29.432,8.013,59.257,6.597,88.749c-1.483,30.895-22.037,36.605-47.837,39.248c-13.604,1.392-27.634-1.494-41.227,0.01
						c-15.983,1.773-26.626,11.677-41.234,17.057c-63.201,23.274-147.881,3.587-211.557-8.106
						c-44.855-8.234-87.57-17.378-132.98-15.782c-80.241,2.82-158.196,13.649-238.909,5.539
						c-30.956-3.109-59.558-11.262-77.928-39.205c-24-36.509-15.049-76.645-5.124-116.4c15.372-61.568,40.002-113.057,87.5-155.091
						c43.088-38.134,100.05-76.594,155.042-92.155c124.322-35.179,251.552-5.304,379.333-5.228
						c27.644,0.016,64.844-17.541,92.534-17.305c13.899,0.119,41.577,8.981,62.718,28.325
						C740.927,73.036,751.842,123.209,733.12,224.837z"/>
					<path style="fill:#D77AF9;" d="M-14.544,159.46c85.878-26.381,174.959-41.562,268.987-57.74
						c44.921-7.729,137.91-15.212,137.222-14.904l-0.595-3.046c-49.761-4.836-230.806,18.168-280.879,24.914
						C62.412,115.12,15.79,123.77-30.558,133.29c20.818-10.834,53.613-17.757,72.114-21.495
						c49.696-10.041,99.597-18.65,150.685-23.151c50.388-4.439,232.498-18.306,282.025-4.5l0.452,4.883
						c0.703-0.401-92.631-0.12-137.911,6.512c-94.78,13.88-184.567,26.798-271.678,57.795
						c-25.295,9.001-46.365,20.137-67.214,22.067c-14.727,1.364-25.96-3.229-33.676-9.021
						C-28.987,164.102-21.958,161.737-14.544,159.46z"/>
					<path style="fill:#C956EE;" d="M664.949,334.903c-26.715-29.109-42.998-69.973-58.037-90.283
						c-29.115-39.324-80.33-31.335-118.606-55.604c-11.275-7.149-20.258-14.564-32.024-21.151
						C422,148.674,351,130.467,302.165,133.001c-33.705,1.748-185.3,4.002-295.803,86.409c-9.189,6.853-21.814,17.126-25.671,27.988
						c-5.341,15.052-5.771,36.058-4.495,52.148c1.64,20.655,11.169,23.336,30.83,16.156c36.396-13.292,80.965-13.718,119.764-14.427
						c73.66-1.344,146.259,4.133,219.666,10.491c56.419,4.888,111.72,15.18,168.145,20.514
						c50.456,4.77,199.296,82.102,260.132,99.402C774.732,431.683,684.004,355.666,664.949,334.903z"/>
					<path style="fill:#C956EE;" d="M481.398,54.975c0,0-188.573-6.715-266.55-4.307C136.871,53.076-20.732,79.316-20.732,79.316
						s171.717-4.368,235.572-8.847C278.696,65.99,481.398,54.975,481.398,54.975z"/>
					<path style="fill:#00CFFF;" d="M385.889,19.291c0,0-99.711,1.724-141.14,4.084c-41.43,2.361-125.982,13.928-125.982,13.928
						s91.197-4.901,125.221-7.632C278.01,26.94,385.889,19.291,385.889,19.291z"/>
					<path style="fill:#A899FF;" d="M384.746,66.114c0,0-126.108-0.851-178.462,0.444c-52.355,1.295-159.03,10.706-159.03,10.706
						s115.253-2.556,158.229-4.414C248.457,70.993,384.746,66.114,384.746,66.114z"/>
				</g>
				<g>
					<path style="fill:#312A5E;" d="M759.496,418.836c0,0-172.201-85.473-249.332-111.716C319.164,242.135,114,273.903,69,288.339
						c-45,14.436-87,22.625-87,22.625l17.41,189.798l760.086,9.459V418.836z"/>
					<path style="opacity:0.4;fill:#212041;" d="M761.204,518.837c0,0-411.241-291.773-740.8-232.139
						c-59.94,10.847-66.414,40.163-66.414,40.163l1.1,233.756l696.469-3.276L761.204,518.837z"/>
					<path style="opacity:0.4;fill:#212041;" d="M745.409,549.838c0,0-411.242-291.773-740.801-232.138
						c-59.94,10.846-66.414,40.162-66.414,40.162l1.1,233.756l696.467-3.276L745.409,549.838z"/>
				</g>
				<g>
					<polygon style="fill:#212041;" points="782.044,77.968 777.046,210.492 619.074,187.049 619.074,72.266 					"/>
					<polygon style="fill:#212041;" points="619.074,-56.494 619.074,72.266 468.972,65.22 468.972,-43.104 					"/>
					<g>
						<polygon style="fill:#312A5E;" points="603.869,71.552 603.869,-55.138 588.474,-53.764 588.474,70.829 						"/>
						<polygon style="fill:#312A5E;" points="577.555,70.317 574.126,-52.484 564.549,-51.63 567.502,69.845 						"/>
						<polygon style="fill:#312A5E;" points="554.011,69.211 554.011,-50.69 544.022,-49.8 544.022,68.742 						"/>
						<polygon style="fill:#312A5E;" points="530.029,68.086 530.029,-48.55 520.112,-47.666 520.112,67.621 						"/>
						<polygon style="fill:#312A5E;" points="505.986,66.957 505.986,-46.406 492.617,-45.213 495.854,66.957 						"/>
						<polygon style="fill:#312A5E;" points="482.714,65.865 482.714,-44.33 474.481,-43.596 474.481,65.935 						"/>
					</g>
					<polygon style="fill:#312A5E;" points="688.651,196.323 688.651,74.7 677.625,75.148 677.625,193.085 					"/>
					<g>
						<polygon style="fill:#312A5E;" points="760.327,208.011 760.327,77.207 750.968,76.88 750.968,206.622 						"/>
						<polygon style="fill:#312A5E;" points="739.779,204.961 739.779,76.88 731.303,76.192 730.982,202.218 						"/>
						<polygon style="fill:#312A5E;" points="715.56,201.367 715.56,76.88 701.488,75.148 706.328,198.876 						"/>
						<polygon style="fill:#312A5E;" points="662.349,191.593 662.349,74.7 652.288,73.428 654.037,191.593 						"/>
						<polygon style="fill:#312A5E;" points="641.316,190.064 641.316,73.428 631.47,73.428 633.993,189.071 						"/>
					</g>
					<polygon style="fill:#312A5E;" points="619.074,72.266 782.044,77.968 782.044,-44.33 619.074,-56.494 					"/>
					<polygon style="fill:#312A5E;" points="619.074,71.334 619.074,187.049 468.972,170.702 468.972,64.289 					"/>
					<g>
						<polygon style="fill:#212041;" points="780.809,-28.165 618.413,-28.165 618.413,-15.336 780.809,-12.867 						"/>
						<polygon style="fill:#212041;" points="780.809,-3.758 618.413,-3.758 618.413,9.071 780.809,11.539 						"/>
						<polygon style="fill:#212041;" points="780.809,20.648 618.413,20.648 618.413,33.477 780.809,35.945 						"/>
						<polygon style="fill:#212041;" points="780.809,45.055 618.413,45.055 618.413,57.883 780.809,60.352 						"/>
					</g>
					<g>
						<polygon style="fill:#212041;" points="626.633,83.68 468.972,75.148 468.972,89.259 625.9,98.96 						"/>
						<polygon style="fill:#212041;" points="625.466,108.059 468.972,98.96 468.972,112.258 624.734,123.339 						"/>
						<polygon style="fill:#212041;" points="624.299,132.437 468.972,125.203 468.972,138.258 623.567,147.717 						"/>
						<polygon style="fill:#212041;" points="623.131,156.815 468.972,146.339 468.972,159.217 622.4,172.096 						"/>
					</g>
				</g>
			</g>
		</g>
	</g>
</g>
<g id="OBJECTS">
	<g>
		<g>
			<defs>
				<rect id="SVGID_1_" width="750" height="500"/>
			</defs>
			<clipPath id="SVGID_00000109724009760907316080000011959747705011100566_">
				<use xlink:href="#SVGID_1_"  style="overflow:visible;"/>
			</clipPath>
			<g style="clip-path:url(#SVGID_00000109724009760907316080000011959747705011100566_);">
				<g>
					<g>
						<g>
							<path style="fill:#212041;" d="M31.572,81.449c0,0-57.464,56.385-62.248,61.019c-4.784,4.634-0.235,9.603-0.235,9.603
								l69.972-54.888L31.572,81.449z"/>
							<path style="fill:#212041;" d="M34.86,103.945c0,0-61.244,51.341-66.241,56.222c-4.997,4.881-0.47,4.851-0.47,4.851
								l75.024-48.386L34.86,103.945z"/>
						</g>
						<g>
							<g>
								<path style="fill:#242470;" d="M44.333,12.992c0,0-36.395,10.326-35.691,26.7c0.704,16.374,44.132,122.406,56.261,122.744
									c13.984,0.388,21.528,0.356,21.528,0.356s-19.484-57.126-24.681-80.864C56.551,58.188,44.333,12.992,44.333,12.992z"/>
								<path style="fill:#4337A4;" d="M44.333,12.992c-17.14,6.9,9.811,63.019,21.78,97.643
									c5.704,16.499,13.868,44.011,15.905,48.458c2.038,4.447,4.756,5.726,10.413-0.693c5.657-6.418,18.73-10.555,18.73-10.555
									S88.594,61.716,86.473,42.879C84.353,24.042,76.688-0.033,44.333,12.992z"/>
								<path style="fill:#6F50D1;" d="M59.678,13.905c-2.615,2.271-3.981,5.495-4.494,8.872c-1.225,8.057,0.938,16.575,3.53,24.16
									c2.111,6.178,4.642,12.61,8.352,18.032c3.722,5.44,8.696,9.903,12.332,15.396c3.59,5.421,5.573,11.362,7.014,17.665
									c2.854,12.491,5.713,25.456,16.697,33.479c1.429,1.044,2.959,1.941,4.54,2.765c-6.43-25.036-19.581-77.232-21.175-91.395
									c-1.4-12.439-5.221-27.159-16.97-31.975C66.013,10.917,62.361,11.574,59.678,13.905z"/>
								<g>
									<path style="fill:#242470;" d="M82.139,35.482c3.436,12.13-1.823,24.241-11.747,27.052
										c-9.923,2.811-20.752-4.743-24.188-16.873c-3.436-12.128,1.823-24.239,11.747-27.05
										C67.875,15.8,78.704,23.353,82.139,35.482z"/>
									<path style="fill:#6F50D1;" d="M79.38,36.264c2.908,10.267-1.542,20.518-9.942,22.897
										c-8.4,2.38-17.567-4.016-20.475-14.282c-2.908-10.265,1.545-20.516,9.944-22.895C67.307,19.604,76.473,25.999,79.38,36.264
										z"/>
									<path style="fill:#00CFFF;" d="M60.214,26.599c-6.313,1.788-9.659,9.495-7.474,17.211
										c2.186,7.718,9.077,12.524,15.39,10.736c6.313-1.789,9.66-9.495,7.474-17.212C73.418,29.617,66.527,24.81,60.214,26.599z
										 M67.341,51.762c-5.054,1.432-10.572-2.417-12.323-8.597c-1.751-6.18,0.929-12.351,5.985-13.783
										c5.056-1.433,10.573,2.417,12.324,8.597C75.077,44.159,72.398,50.33,67.341,51.762z"/>
								</g>
								<g>
									<path style="fill:#242470;" d="M92.551,83.24c2.751,9.713-1.46,19.411-9.406,21.662
										c-7.946,2.251-16.619-3.798-19.369-13.512c-2.751-9.712,1.46-19.41,9.406-21.661C81.128,67.479,89.8,73.528,92.551,83.24z"
										/>
									<path style="fill:#6F50D1;" d="M90.342,83.866c2.329,8.221-1.236,16.431-7.961,18.336
										c-6.726,1.905-14.067-3.216-16.395-11.437c-2.328-8.22,1.236-16.429,7.962-18.334
										C80.673,70.526,88.013,75.646,90.342,83.866z"/>
									<path style="fill:#C956EE;" d="M74.994,76.127c-5.056,1.432-7.735,7.603-5.985,13.782
										c1.751,6.18,7.269,10.028,12.323,8.597c5.057-1.432,7.736-7.604,5.985-13.784C85.567,78.544,80.049,74.694,74.994,76.127z
										 M80.701,96.276c-4.047,1.147-8.466-1.935-9.868-6.884c-1.402-4.948,0.745-9.89,4.793-11.037
										c4.049-1.147,8.467,1.936,9.869,6.884C86.896,90.188,84.75,95.13,80.701,96.276z"/>
									<path style="fill:none;stroke:#242470;stroke-width:0.5;stroke-miterlimit:10;" d="M76.215,80.44
										c-3.082,0.873-4.709,4.66-3.634,8.457c1.076,3.798,4.447,6.168,7.529,5.295c3.083-0.874,4.711-4.66,3.634-8.457
										C82.669,81.938,79.298,79.566,76.215,80.44z M79.723,92.822c-2.469,0.7-5.168-1.199-6.03-4.24
										c-0.86-3.041,0.443-6.073,2.911-6.772c2.469-0.7,5.169,1.198,6.03,4.24C83.494,89.091,82.191,92.123,79.723,92.822z"/>
								</g>
								<path style="fill:none;stroke:#242470;stroke-width:0.5;stroke-miterlimit:10;" d="M99.181,124.388
									c1.582,5.396-0.774,10.837-5.262,12.152c-4.488,1.316-9.408-1.992-10.99-7.388c-1.582-5.397,0.774-10.837,5.262-12.153
									C92.679,115.684,97.598,118.993,99.181,124.388z"/>
								<path style="fill:none;stroke:#242470;stroke-width:0.5;stroke-miterlimit:10;" d="M78.416,136.151
									c0,0,2.823,9.765,5.202,15.703c3.331,2.014,3.331,2.014,5.121,2.383c1.741,0.36,6.12-2.407,6.12-2.407
									s7.734-3.367,10.57-5.579"/>
							</g>
							<path style="fill:none;stroke:#242470;stroke-width:0.5;stroke-miterlimit:10;" d="M101.647,123.665
								c2.061,7.034-1.009,14.126-6.859,15.841c-5.85,1.715-12.263-2.597-14.325-9.63c-2.062-7.034,1.009-14.127,6.858-15.841
								C93.172,112.319,99.585,116.632,101.647,123.665z"/>
						</g>
					</g>
					<g>
						<g>
							<polygon style="fill:#4337A4;" points="42.823,377.423 134.251,443.548 134.251,557.487 43.538,533.471 							"/>
							<g>
								<g>
									<polygon style="fill:#00CFFF;" points="103.951,484.861 73.417,467.183 62.274,471.172 61.995,470.393 73.499,466.275 
										73.665,466.37 104.367,484.146 									"/>
									<g>
										<polygon style="fill:#00CFFF;" points="105.318,490.957 74.783,473.277 63.641,477.267 63.362,476.486 74.865,472.37 
											75.032,472.467 105.733,490.242 										"/>
										<polygon style="fill:#00CFFF;" points="102.662,479.571 72.127,461.891 60.985,465.881 60.706,465.102 72.21,460.982 
											72.377,461.08 103.077,478.854 										"/>
										<path style="fill:#00CFFF;" d="M62.953,474.834c-1.124,0.303-1.798,1.461-1.498,2.589c0.304,1.126,1.466,1.8,2.59,1.5
											c1.129-0.302,1.802-1.461,1.502-2.59C65.246,475.205,64.084,474.533,62.953,474.834z"/>
										<path style="fill:#00CFFF;" d="M61.587,468.74c-1.124,0.3-1.798,1.459-1.498,2.588c0.303,1.127,1.465,1.798,2.589,1.499
											c1.13-0.304,1.803-1.461,1.502-2.59C63.879,469.109,62.718,468.439,61.587,468.74z"/>
										<path style="fill:#00CFFF;" d="M60.299,463.449c-1.125,0.301-1.799,1.458-1.499,2.586c0.302,1.13,1.463,1.802,2.59,1.499
											c1.128-0.3,1.801-1.459,1.502-2.587C62.591,463.816,61.428,463.148,60.299,463.449z"/>
									</g>
								</g>
								<g>
									<polygon style="fill:#00CFFF;" points="111.965,471.022 81.097,453.149 78.94,441.125 79.755,440.979 81.844,452.625 
										112.38,470.306 									"/>
									<g>
										<polygon style="fill:#00CFFF;" points="117.931,469.171 87.063,451.302 84.906,439.275 85.721,439.13 87.81,450.776 
											118.346,468.457 										"/>
										<polygon style="fill:#00CFFF;" points="106.734,472.537 75.867,454.668 73.71,442.642 74.524,442.496 76.613,454.143 
											107.149,471.823 										"/>
										<path style="fill:#00CFFF;" d="M83.27,439.744c-0.299-1.124,0.369-2.285,1.499-2.589c1.129-0.298,2.289,0.374,2.59,1.501
											c0.3,1.129-0.37,2.288-1.498,2.592C84.733,441.547,83.572,440.874,83.27,439.744z"/>
										<path style="fill:#00CFFF;" d="M77.303,441.595c-0.298-1.124,0.371-2.288,1.499-2.589c1.129-0.299,2.29,0.374,2.59,1.499
											c0.3,1.13-0.37,2.291-1.498,2.593C78.765,443.397,77.605,442.725,77.303,441.595z"/>
										<path style="fill:#00CFFF;" d="M72.073,443.111c-0.298-1.125,0.371-2.287,1.499-2.588c1.129-0.301,2.29,0.373,2.59,1.499
											c0.299,1.129-0.37,2.288-1.499,2.592C73.535,444.915,72.374,444.242,72.073,443.111z"/>
									</g>
								</g>
								<g>
									
										<rect x="82.396" y="441.428" transform="matrix(0.5011 -0.8654 0.8654 0.5011 -359.29 302.63)" style="fill:#00CFFF;" width="0.827" height="42.958"/>
									<path style="fill:#00CFFF;" d="M63.673,450.103c-1.125,0.301-1.798,1.46-1.498,2.589c0.302,1.127,1.464,1.799,2.589,1.499
										c1.129-0.303,1.802-1.461,1.502-2.59C65.966,450.474,64.804,449.803,63.673,450.103z"/>
								</g>
							</g>
							<path style="fill:#C956EE;" d="M48.227,435.168c0,0,28.868-22.811,32.203-25.36L50.3,388.578c0,0-1.261,0.67-1.992,4.556
								C47.577,397.02,48.227,435.168,48.227,435.168z"/>
							<path style="fill:#C956EE;" d="M95.133,419.371l33.294,25.09c0,0,2.245,1.795,2.245,9.011c0,4.573-0.695,7.097-2.245,6.008
								c-1.55-1.09-31.914-17.104-33.294-20.311C93.753,435.963,95.133,419.371,95.133,419.371z"/>
							<path style="fill:#6F50D1;" d="M39.556,523.884c0,0,14.379-37.019,19.818-39.801c7.691-3.934,19.797,5.165,27.103,9.365
								c7.305,4.202,30.714,25.328,30.714,25.328L39.556,523.884z"/>
							
								<line style="fill:none;stroke:#212041;stroke-width:0.5;stroke-miterlimit:10;" x1="125.108" y1="447.662" x2="125.108" y2="509.35"/>
							
								<line style="fill:none;stroke:#212041;stroke-width:0.5;stroke-miterlimit:10;" x1="51.051" y1="403.96" x2="51.051" y2="528.59"/>
						</g>
						<g>
							<polyline style="fill:#212041;" points="220.221,405.152 300.887,359.202 300.887,510.336 220.221,507.898 220.221,405.152 
															"/>
							<path style="fill:#4337A4;" d="M242.868,397.903c1.47,6.691,2.358,13.511,2.561,20.361c0.21,7.09-0.469,14.115-0.627,21.194
								c-0.152,6.813,0.076,13.93,2.501,20.383c2.228,5.931,6.673,12.746,13.206,14.47c6.156,1.624,12.346-1.227,17.355-4.665
								c5.815-3.991,10.233-9.575,15.883-13.746c2.24-1.653,4.659-3.133,7.14-4.561v-92.138l-59.247,33.749
								C242.092,394.591,242.503,396.241,242.868,397.903z"/>
							<polyline style="fill:#212041;" points="135.333,442.408 215.999,396.458 215.999,502.986 135.333,524.252 135.333,442.408 
															"/>
							<line style="fill:none;stroke:#6554BF;stroke-miterlimit:10;" x1="143.164" y1="468.974" x2="215.999" y2="432.307"/>
							<line style="fill:none;stroke:#6554BF;stroke-miterlimit:10;" x1="143.164" y1="501.65" x2="215.999" y2="464.983"/>
							<path style="fill:#212041;" d="M270.333,448.334c-12.667,7.333-24.339,2.947-24.339,2.947l34.666-17.038
								C280.661,434.243,277.878,443.966,270.333,448.334z"/>
							<path style="fill:#212041;" d="M265,416.576c-12.667,7.333-24.339,2.947-24.339,2.947l34.666-17.038
								C275.327,402.485,272.545,412.208,265,416.576z"/>
							<path style="fill:#212041;" d="M276.667,481.869c-12.667,7.333-24.339,2.947-24.339,2.947l34.666-17.038
								C286.994,467.778,284.212,477.501,276.667,481.869z"/>
							<line style="fill:none;stroke:#6554BF;stroke-miterlimit:10;" x1="224.137" y1="427.446" x2="296.972" y2="390.779"/>
							<line style="fill:none;stroke:#6554BF;stroke-miterlimit:10;" x1="228.052" y1="459.797" x2="300.887" y2="423.13"/>
							<line style="fill:none;stroke:#6554BF;stroke-miterlimit:10;" x1="228.052" y1="497.053" x2="300.887" y2="460.386"/>
						</g>
						<g>
							<polygon style="fill:#242470;" points="32.109,310.296 32.109,506.615 12.109,506.615 12.109,311.798 							"/>
							<g>
								<g>
									<polygon style="fill:#242470;" points="485.164,212.116 485.164,358.908 465.164,358.908 465.164,213.239 									"/>
									<path style="opacity:0.2;fill:#242470;" d="M472.836,276.205c4.071-4.187,8.9-7.415,11.965-12.528
										c0.131-0.219,0.239-0.444,0.363-0.665v-50.895l-20,1.123v77.104C466.6,285.147,468.876,280.275,472.836,276.205z"/>
								</g>
								<polygon style="fill:#242470;" points="163.164,376.636 163.164,523.428 143.164,523.428 143.164,377.759 								"/>
								<path style="opacity:0.2;fill:#242470;" d="M152.165,472.62c4.142-4.36,7.496-9.413,9.865-14.945
									c0.404-0.944,0.776-1.897,1.134-2.853v-78.187l-20,1.123v107.899C145.319,480.538,148.371,476.614,152.165,472.62z"/>
								<g>
									<polygon style="fill:#4337A4;" points="528.132,213.476 148.192,420.824 -7.023,308.913 370.051,172.555 									"/>
									<polygon style="fill:#242470;" points="148.192,446.508 148.192,420.824 -7.023,308.913 -7.023,325.283 									"/>
									<polygon style="fill:#242470;" points="148.192,446.508 528.132,227.852 528.132,213.476 148.192,420.824 									"/>
									<polygon style="fill:#C956EE;" points="148.192,427.402 -7.023,317.029 -7.023,308.913 148.192,420.824 									"/>
									<polygon style="fill:#BE94FF;" points="148.192,428.769 -7.023,316.343 -7.023,313.36 148.192,425.272 									"/>
									<path style="opacity:0.2;fill:#4337A4;" d="M201.212,379.373c-14.513,1.886-29.381,4.951-44.057,3.084
										c-11.239-1.43-23.065-5.901-31.242-14.023c-12.734-12.649-11.409-30.864-3.758-45.884
										c4.248-8.34,10.029-15.935,16.776-22.413c8.439-8.102,18.523-14.006,28.644-19.761
										C219.023,251.123,290.081,226.222,348.5,218c19.395-2.73,88.439,2.131,110.51-21.733l-88.959-23.711L-7.023,308.913
										l155.216,111.911l77.789-42.453C217.689,377.925,209.347,378.315,201.212,379.373z"/>
								</g>
							</g>
						</g>
					</g>
					<g>
						<g>
							<g>
								<polygon style="fill:#00CFFF;" points="157.391,312.886 157.391,316.048 231.714,365.304 439.834,250.501 439.834,247.915 
									366.813,222.661 								"/>
								<polygon style="fill:#212041;" points="439.834,247.915 367.948,218.986 157.391,312.886 232.409,358.278 								"/>
							</g>
							<g>
								<polyline style="fill:none;stroke:#6554BF;stroke-width:0.5;stroke-miterlimit:10;" points="170.529,310.778 
									228.276,349.465 242.457,347.754 266.894,333.978 								"/>
								
									<line style="fill:none;stroke:#6554BF;stroke-width:0.5;stroke-miterlimit:10;" x1="184.708" y1="303.657" x2="184.362" y2="314.482"/>
								
									<line style="fill:none;stroke:#6554BF;stroke-width:0.5;stroke-miterlimit:10;" x1="188.544" y1="303.657" x2="188.198" y2="314.482"/>
								
									<line style="fill:none;stroke:#6554BF;stroke-width:0.5;stroke-miterlimit:10;" x1="412.223" y1="246.365" x2="411.875" y2="257.189"/>
								
									<line style="fill:none;stroke:#6554BF;stroke-width:0.5;stroke-miterlimit:10;" x1="416.058" y1="246.365" x2="415.713" y2="257.189"/>
								<polyline style="fill:none;stroke:#6554BF;stroke-width:0.5;stroke-miterlimit:10;" points="354.499,229.069 
									362.798,224.923 371.28,224.923 424.138,247.645 								"/>
							</g>
						</g>
						<g>
							<path style="fill:none;stroke:#9657EC;stroke-miterlimit:10;" d="M323.993,188.065c-2.147,5.942-6.179,10.839,1.592,15.011
								c5.499,2.952,13.146,1.662,19.272,2.215c6.677,0.603,9.4,3.632,10.994,10.259c1.388,5.773,2.526,17.265,10.78,16.467"/>
							<g>
								<path style="fill:#9848B5;" d="M360.058,245.118c-2.156-2.548-4.73-10.264,3.669-13.289
									c8.399-3.024,10.136-3.334,18.341,0.537c9.262,4.367,14.143,10.11,13.886,14.052c-0.258,3.941-1.888,8.419-6.935,10.307
									c-6.9,2.579-14.811,0.767-17.431-3.325c-2.621-4.089-3.171-5.683-7.35-6.982
									C360.058,245.118,361.448,246.762,360.058,245.118z"/>
								<path style="fill:#242470;" d="M375.226,241.925c4.047,3.455,9.89,2.052,10.162-1.959
									c0.253-3.767-12.831-9.727-14.325-9.791c-1.269-0.054-0.786-0.664-4.431,0.072c-0.549,0.111-3.105,1.183-2.906,1.582
									C365.227,234.839,375.226,241.925,375.226,241.925z"/>
								<path style="fill:#242470;" d="M360.31,245.643c-2.387-2.883-1.695-6.723-0.485-8.21c2.111-2.592,5.853,1.648,7.288,2.965
									c5.16,4.735,8.763,13.09,16.353,14.505c3.746,0.698,7.774-0.264,11.868-5.018c-1.649,7.55-11.261,9.067-14.935,8.689
									c-2.638-0.272-5.889-1.32-8.035-2.973c-2.266-1.746-3.306-4.506-5.634-6.071
									C365.173,248.482,361.507,247.087,360.31,245.643z"/>
								<g>
									<path style="fill:none;stroke:#6554BF;stroke-width:0.25;stroke-miterlimit:10;" d="M364.706,240.708
										c0,0.603-0.479,1.091-1.068,1.091c-0.59,0-1.068-0.489-1.068-1.091c0-0.603,0.478-1.092,1.068-1.092
										C364.227,239.616,364.706,240.105,364.706,240.708z"/>
									<path style="fill:none;stroke:#6554BF;stroke-width:0.25;stroke-miterlimit:10;" d="M362.57,243.017
										c0,0.603-0.478,1.092-1.068,1.092c-0.59,0-1.068-0.489-1.068-1.092s0.478-1.091,1.068-1.091
										C362.092,241.925,362.57,242.414,362.57,243.017z"/>
									<path style="fill:none;stroke:#6554BF;stroke-width:0.25;stroke-miterlimit:10;" d="M365.56,245.821
										c0,0.485-0.431,0.877-0.961,0.877c-0.531,0-0.961-0.393-0.961-0.877c0-0.484,0.43-0.878,0.961-0.878
										C365.13,244.943,365.56,245.337,365.56,245.821z"/>
									<path style="fill:none;stroke:#6554BF;stroke-width:0.25;stroke-miterlimit:10;" d="M366.434,243.017
										c0,0.479-0.387,0.868-0.864,0.868c-0.478,0-0.864-0.388-0.864-0.868c0-0.479,0.386-0.868,0.864-0.868
										C366.047,242.149,366.434,242.538,366.434,243.017z"/>
									<path style="fill:none;stroke:#6554BF;stroke-width:0.25;stroke-miterlimit:10;" d="M370.015,245.574
										c0,0.621-0.449,1.124-1.004,1.124c-0.555,0-1.004-0.503-1.004-1.124c0-0.622,0.449-1.125,1.004-1.125
										C369.565,244.449,370.015,244.953,370.015,245.574z"/>
									<path style="fill:none;stroke:#6554BF;stroke-width:0.25;stroke-miterlimit:10;" d="M371.191,248.526
										c0,0.622-0.45,1.125-1.004,1.125c-0.555,0-1.005-0.503-1.005-1.125c0-0.621,0.45-1.125,1.005-1.125
										C370.741,247.401,371.191,247.905,371.191,248.526z"/>
									<path style="fill:none;stroke:#6554BF;stroke-width:0.25;stroke-miterlimit:10;" d="M371.853,251.534
										c0,0.516-0.373,0.933-0.833,0.933c-0.461,0-0.833-0.417-0.833-0.933c0-0.517,0.373-0.935,0.833-0.935
										C371.48,250.6,371.853,251.018,371.853,251.534z"/>
									<path style="fill:none;stroke:#6554BF;stroke-width:0.25;stroke-miterlimit:10;" d="M374.255,250.6
										c0,0.516-0.373,0.935-0.834,0.935c-0.46,0-0.833-0.419-0.833-0.935c0-0.516,0.373-0.934,0.833-0.934
										C373.883,249.666,374.255,250.084,374.255,250.6z"/>
									<path style="fill:none;stroke:#6554BF;stroke-width:0.25;stroke-miterlimit:10;" d="M368.007,248.27
										c0,0.478-0.308,0.867-0.688,0.867c-0.379,0-0.687-0.389-0.687-0.867c0-0.48,0.308-0.868,0.687-0.868
										C367.699,247.401,368.007,247.79,368.007,248.27z"/>
								</g>
								<g>
									<path style="fill:#212041;" d="M367.954,232.624c0,0,0.297-1.281,1.967-1.275c1.669,0.006,3.544,1.229,4.604,2.126
										c1.06,0.898,1.484,1.572,0.89,2.186c-0.591,0.615-0.66,0.588-1.383,0.691C373.31,236.456,367.954,232.624,367.954,232.624z
										"/>
									<path style="fill:#242470;" d="M367.985,232.098c0,0,0.298-1.281,1.967-1.275c1.669,0.005,3.544,1.229,4.605,2.126
										c1.059,0.897,1.483,1.571,0.891,2.186c-0.593,0.614-0.942,0.359-1.897,0.298
										C372.822,235.387,367.985,232.098,367.985,232.098z"/>
								</g>
							</g>
						</g>
						<g>
							<polygon style="fill:#242470;" points="247.027,323.5 207.561,298.58 206.544,303.487 244.251,329.704 247.034,331.64 
															"/>
							<polygon style="fill:#4337A4;" points="244.617,326.994 210.35,306.134 210.35,306.134 247.034,331.64 							"/>
							<g>
								<polygon style="fill:#9848B5;" points="207.561,298.58 247.027,323.5 362.547,262.576 327.282,246.664 								"/>
								<path style="opacity:0.2;fill:#9848B5;" d="M232.677,299.802c1.079-8.159,10.893-11.97,17.671-14.03
									c8.665-2.632,17.857-3.236,26.457-5.976c7.88-2.512,15.646-5.426,23.115-8.992c6.868-3.281,13.261-7.566,20.311-10.463
									c7.205-2.962,14.4-3.582,22.108-2.698c4.295,0.493,8.584,1.224,12.888,1.631l-27.944-12.61L207.561,298.58l38.966,24.604
									C248.402,312.818,231.252,310.569,232.677,299.802z"/>
								<polygon style="fill:#242470;" points="362.547,262.576 247.027,323.5 247.034,331.64 364.58,265.826 								"/>
								<polygon style="fill:#C956EE;" points="215.052,298.207 327.093,249.24 328.761,249.96 217.519,299.996 								"/>
								<g>
									<polygon style="fill:#C956EE;" points="324.657,262.054 318.339,265.099 324.119,268.707 330.356,265.576 									"/>
									<polygon style="fill:#00CFFF;" points="316.886,264.189 323.211,261.161 319.042,258.585 312.663,261.556 									"/>
									<polygon style="fill:#C956EE;" points="270.306,286.49 275.782,283.868 271.04,280.938 265.524,283.507 									"/>
									<polygon style="fill:#C956EE;" points="332.015,258.511 325.906,261.452 331.551,264.977 337.582,261.951 									"/>
									<polygon style="fill:#C956EE;" points="320.341,257.979 324.471,260.558 330.589,257.63 326.509,255.107 									"/>
									<polygon style="fill:#C956EE;" points="302.982,270.846 308.455,268.226 304.107,265.538 298.594,268.105 									"/>
									<polygon style="fill:#C956EE;" points="276.988,283.29 284.069,279.9 279.428,277.032 272.288,280.356 									"/>
									<polygon style="fill:#6F50D1;" points="285.275,279.322 293.879,275.205 289.355,272.41 280.674,276.452 									"/>
									<polygon style="fill:#C956EE;" points="295.135,274.603 301.725,271.449 297.295,268.711 290.652,271.805 									"/>
									<polygon style="fill:#C956EE;" points="309.708,267.626 315.626,264.79 311.366,262.16 305.399,264.939 									"/>
									<polygon style="fill:#C956EE;" points="277.358,284.842 271.887,287.476 278.496,291.603 283.905,288.887 									"/>
									<polygon style="fill:#C956EE;" points="270.69,288.053 263.731,291.406 270.484,295.621 277.357,292.172 									"/>
									<polygon style="fill:#C956EE;" points="254.55,303.62 262.314,299.724 255.373,295.435 247.507,299.222 									"/>
									<polygon style="fill:#C956EE;" points="317.093,265.697 311.182,268.547 317.09,272.234 322.929,269.305 									"/>
									<polygon style="fill:#C956EE;" points="262.532,291.984 256.628,294.828 263.509,299.123 269.345,296.194 									"/>
									<polygon style="fill:#C956EE;" points="309.941,269.143 304.475,271.776 310.503,275.539 315.905,272.83 									"/>
									<polygon style="fill:#C956EE;" points="303.228,272.377 296.649,275.547 302.816,279.398 309.312,276.138 									"/>
									<polygon style="fill:#C956EE;" points="285.621,280.859 278.551,284.266 285.042,288.317 292.021,284.815 									"/>
									<polygon style="fill:#C956EE;" points="295.405,276.146 286.815,280.284 293.158,284.243 301.629,279.993 									"/>
									<polygon style="fill:#C956EE;" points="332.599,266.964 326.309,270.071 331.561,273.35 337.728,270.132 									"/>
									<polygon style="fill:#C956EE;" points="344.88,260.89 341.056,262.781 345.956,265.84 350.12,263.667 									"/>
									<polygon style="fill:#C956EE;" points="339.873,263.365 333.789,266.373 338.863,269.54 344.829,266.429 									"/>
									<polygon style="fill:#C956EE;" points="325.122,270.659 319.231,273.571 324.652,276.954 330.431,273.942 									"/>
									<polygon style="fill:#C956EE;" points="338.769,261.355 345.144,258.156 339.26,255.019 333.254,257.913 									"/>
									<polygon style="fill:#C956EE;" points="236.841,304.359 228.84,308.215 236.227,312.815 244.114,308.856 									"/>
									<polygon style="fill:#4337A4;" points="245.779,309.884 238.223,313.618 245.946,318.018 252.992,314.341 									"/>
									<polygon style="fill:#C956EE;" points="318.051,274.155 312.6,276.85 318.179,280.332 323.529,277.54 									"/>
									<polygon style="fill:#C956EE;" points="229.921,300.085 222.094,303.728 227.769,306.854 235.154,303.319 									"/>
									<polygon style="fill:#C956EE;" points="331.841,257.029 337.839,254.158 333.057,252.059 327.799,254.507 									"/>
									<polygon style="fill:#C956EE;" points="236.424,302.712 244.593,298.801 239.474,295.639 231.236,299.471 									"/>
									<polygon style="fill:#C956EE;" points="245.859,298.193 253.738,294.422 248.729,291.326 240.784,295.025 									"/>
									<polygon style="fill:#C956EE;" points="253.358,304.217 246.253,299.827 238.098,303.755 245.309,308.256 									"/>
									<polygon style="fill:#C956EE;" points="262.127,290.405 269.098,287.071 264.274,284.089 257.248,287.36 									"/>
									<polygon style="fill:#C956EE;" points="255.005,293.815 260.916,290.985 255.994,287.944 250.042,290.716 									"/>
									<polygon style="fill:#C956EE;" points="262.074,309.603 255.084,305.283 246.972,309.294 254.117,313.755 									"/>
									<polygon style="fill:#C956EE;" points="311.415,277.436 304.862,280.675 310.626,284.272 317.052,280.921 									"/>
									<polygon style="fill:#C956EE;" points="303.679,281.261 265.293,300.237 272.001,304.424 309.502,284.859 									"/>
									<polygon style="fill:#C956EE;" points="264.101,300.826 256.275,304.695 263.198,309.017 270.874,305.012 									"/>
								</g>
								
									<line style="fill:none;stroke:#C956EE;stroke-width:0.5;stroke-miterlimit:10;" x1="247.523" y1="319.066" x2="352.372" y2="264.161"/>
								
									<line style="fill:none;stroke:#FFFFFF;stroke-width:0.25;stroke-miterlimit:10;" x1="219.092" y1="300.997" x2="330.583" y2="250.561"/>
								<g>
									<polygon style="fill:none;stroke:#FFFFFF;stroke-width:0.25;stroke-miterlimit:10;" points="324.657,262.054 
										318.339,265.099 324.119,268.707 330.356,265.576 									"/>
									<polygon style="fill:none;stroke:#FFFFFF;stroke-width:0.25;stroke-miterlimit:10;" points="316.886,264.189 
										323.211,261.161 319.042,258.585 312.663,261.556 									"/>
									<polygon style="fill:none;stroke:#FFFFFF;stroke-width:0.25;stroke-miterlimit:10;" points="270.306,286.49 
										275.782,283.868 271.04,280.938 265.524,283.507 									"/>
									<polygon style="fill:none;stroke:#FFFFFF;stroke-width:0.25;stroke-miterlimit:10;" points="332.015,258.511 
										325.906,261.452 331.551,264.977 337.582,261.951 									"/>
									<polygon style="fill:none;stroke:#FFFFFF;stroke-width:0.25;stroke-miterlimit:10;" points="320.341,257.979 
										324.471,260.558 330.589,257.63 326.509,255.107 									"/>
									<polygon style="fill:none;stroke:#FFFFFF;stroke-width:0.25;stroke-miterlimit:10;" points="302.982,270.846 
										308.455,268.226 304.107,265.538 298.594,268.105 									"/>
									<polygon style="fill:none;stroke:#FFFFFF;stroke-width:0.25;stroke-miterlimit:10;" points="276.988,283.29 284.069,279.9 
										279.428,277.032 272.288,280.356 									"/>
									<polygon style="fill:none;stroke:#FFFFFF;stroke-width:0.25;stroke-miterlimit:10;" points="295.135,274.603 
										301.725,271.449 297.295,268.711 290.652,271.805 									"/>
									<polygon style="fill:none;stroke:#FFFFFF;stroke-width:0.25;stroke-miterlimit:10;" points="309.708,267.626 
										315.626,264.79 311.366,262.16 305.399,264.939 									"/>
									<polygon style="fill:none;stroke:#FFFFFF;stroke-width:0.25;stroke-miterlimit:10;" points="277.358,284.842 
										271.887,287.476 278.496,291.603 283.905,288.887 									"/>
									<polygon style="fill:none;stroke:#FFFFFF;stroke-width:0.25;stroke-miterlimit:10;" points="270.69,288.053 
										263.731,291.406 270.484,295.621 277.357,292.172 									"/>
									<polygon style="fill:none;stroke:#FFFFFF;stroke-width:0.25;stroke-miterlimit:10;" points="254.55,303.62 
										262.314,299.724 255.373,295.435 247.507,299.222 									"/>
									<polygon style="fill:none;stroke:#FFFFFF;stroke-width:0.25;stroke-miterlimit:10;" points="317.093,265.697 
										311.182,268.547 317.09,272.234 322.929,269.305 									"/>
									<polygon style="fill:none;stroke:#FFFFFF;stroke-width:0.25;stroke-miterlimit:10;" points="309.941,269.143 
										304.475,271.776 310.503,275.539 315.905,272.83 									"/>
									<polygon style="fill:none;stroke:#FFFFFF;stroke-width:0.25;stroke-miterlimit:10;" points="303.228,272.377 
										296.649,275.547 302.816,279.398 309.312,276.138 									"/>
									<polygon style="fill:none;stroke:#FFFFFF;stroke-width:0.25;stroke-miterlimit:10;" points="285.621,280.859 
										278.551,284.266 285.042,288.317 292.021,284.815 									"/>
									<polygon style="fill:none;stroke:#FFFFFF;stroke-width:0.25;stroke-miterlimit:10;" points="295.405,276.146 
										286.815,280.284 293.158,284.243 301.629,279.993 									"/>
									<polygon style="fill:none;stroke:#FFFFFF;stroke-width:0.25;stroke-miterlimit:10;" points="339.873,263.365 
										333.789,266.373 338.863,269.54 344.829,266.429 									"/>
									<polygon style="fill:none;stroke:#FFFFFF;stroke-width:0.25;stroke-miterlimit:10;" points="325.122,270.659 
										319.231,273.571 324.652,276.954 330.431,273.942 									"/>
									<polygon style="fill:none;stroke:#FFFFFF;stroke-width:0.25;stroke-miterlimit:10;" points="338.769,261.355 
										345.144,258.156 339.26,255.019 333.254,257.913 									"/>
									<polygon style="fill:none;stroke:#FFFFFF;stroke-width:0.25;stroke-miterlimit:10;" points="236.841,304.359 
										228.84,308.215 236.227,312.815 244.114,308.856 									"/>
									<polygon style="fill:none;stroke:#FFFFFF;stroke-width:0.25;stroke-miterlimit:10;" points="318.051,274.155 312.6,276.85 
										318.179,280.332 323.529,277.54 									"/>
									<polygon style="fill:none;stroke:#FFFFFF;stroke-width:0.25;stroke-miterlimit:10;" points="331.841,257.029 
										337.839,254.158 333.057,252.059 327.799,254.507 									"/>
									<polygon style="fill:none;stroke:#FFFFFF;stroke-width:0.25;stroke-miterlimit:10;" points="236.424,302.712 
										244.593,298.801 239.474,295.639 231.236,299.471 									"/>
									<polygon style="fill:none;stroke:#FFFFFF;stroke-width:0.25;stroke-miterlimit:10;" points="245.859,298.193 
										253.738,294.422 248.729,291.326 240.784,295.025 									"/>
									<polygon style="fill:none;stroke:#FFFFFF;stroke-width:0.25;stroke-miterlimit:10;" points="253.358,304.217 
										246.253,299.827 238.098,303.755 245.309,308.256 									"/>
									<polygon style="fill:none;stroke:#FFFFFF;stroke-width:0.25;stroke-miterlimit:10;" points="262.127,290.405 
										269.098,287.071 264.274,284.089 257.248,287.36 									"/>
									<polygon style="fill:none;stroke:#FFFFFF;stroke-width:0.25;stroke-miterlimit:10;" points="255.005,293.815 
										260.916,290.985 255.994,287.944 250.042,290.716 									"/>
									<polygon style="fill:none;stroke:#FFFFFF;stroke-width:0.25;stroke-miterlimit:10;" points="262.074,309.603 
										255.084,305.283 246.972,309.294 254.117,313.755 									"/>
									<polygon style="fill:none;stroke:#FFFFFF;stroke-width:0.25;stroke-miterlimit:10;" points="311.415,277.436 
										304.862,280.675 310.626,284.272 317.052,280.921 									"/>
									<polygon style="fill:none;stroke:#FFFFFF;stroke-width:0.25;stroke-miterlimit:10;" points="303.679,281.261 
										265.293,300.237 272.001,304.424 309.502,284.859 									"/>
									<polygon style="fill:none;stroke:#FFFFFF;stroke-width:0.25;stroke-miterlimit:10;" points="264.101,300.826 
										256.275,304.695 263.198,309.017 270.874,305.012 									"/>
								</g>
							</g>
						</g>
					</g>
					<g>
						<g>
							<polygon style="fill:#212041;" points="280.246,233.336 266.491,226.591 225.181,244.645 236.415,254.309 							"/>
							<polygon style="fill:#C956EE;" points="280.246,233.336 236.415,254.309 225.181,244.645 225.227,247.374 236.685,256.232 
								281.263,235.494 							"/>
							<path style="opacity:0.4;fill:#212041;" d="M237.021,253.59c1.697-3.506-3.653-5.311-2.389-8.805
								c0.844-2.334,5.884-6.019,8.123-7.123c2.525-1.246,5.274-1.792,7.854-2.874c3.422-1.435,6.834-3.163,10.463-4.021
								c6.624-1.566,12.853,0.747,19.067,2.621l0.107-0.051l-13.755-6.745l-41.309,18.055l11.234,9.663l0.6-0.287
								C236.957,253.895,236.945,253.746,237.021,253.59z"/>
						</g>
						<g>
							<polygon style="fill:#212041;" points="439.665,208.161 434.009,197.464 383.453,200.091 380.881,210.884 							"/>
							<polygon style="fill:#C956EE;" points="439.665,208.161 380.881,210.884 380.92,213.245 439.698,210.206 							"/>
							<path style="opacity:0.4;fill:#212041;" d="M387.823,203.079c3.911-1.1,8.053-0.54,11.996-1.469
								c2.85-0.672,5.605-1.782,8.484-2.314c2.572-0.475,5.334-0.191,7.855-0.904l-32.706,1.7l-2.572,10.793l0.117-0.005
								C382.095,207.353,384.066,204.134,387.823,203.079z"/>
						</g>
						<polygon style="fill:#6F50D1;" points="145.203,107.042 318.868,74.132 496.192,71.132 502.632,73.058 318.914,76.858 
							150.901,114.448 						"/>
						<g>
							<g>
								<polygon style="fill:#212041;" points="150.605,311.73 107.114,353.082 87.022,344.248 127.164,308.75 								"/>
								<polygon style="fill:#C956EE;" points="150.605,311.73 107.114,353.082 87.022,344.248 87.079,347.58 107.529,358.184 
									150.658,314.846 								"/>
								<path style="opacity:0.4;fill:#212041;" d="M106.811,352.688c3.355-3.264,0.714-9.621-0.607-13.418
									c-0.688-1.979-2.065-4.695-1.235-6.844c1.086-2.813,3.943-5.029,6.168-6.9c3.664-3.082,7.602-5.9,11.872-8.084
									c6.088-3.113,12.584-4.453,19.188-6.035c0.674-0.16,1.35-0.324,2.025-0.488l-17.058-2.168l-40.142,35.498l19.663,8.647
									C106.707,352.822,106.744,352.752,106.811,352.688z"/>
							</g>
							<polygon style="fill:#212041;" points="115.269,266.397 124.18,320.615 107.307,341.908 89.817,278.971 							"/>
						</g>
						<polygon style="fill:#212041;" points="260.398,197.856 260.94,232.526 239.083,244.785 236.2,203.618 						"/>
						<polygon style="fill:#212041;" points="418.061,174.898 418.061,202.555 399.632,202.555 398.452,175.924 						"/>
						<polygon style="fill:#212041;" points="502.632,73.058 489.683,177.379 318.908,187.872 318.914,76.858 						"/>
						<polygon style="fill:#00CFFF;" points="496.339,79.882 483.753,172.28 325.2,183.511 325.205,83.058 						"/>
						<polygon style="fill:#212041;" points="318.914,76.858 318.908,187.872 162.277,256.549 150.387,108.024 						"/>
						<polygon style="fill:#212041;" points="162.277,256.549 26.28,369.65 -5.274,196.851 150.387,108.024 						"/>
						<polygon style="fill:#4337A4;" points="26.28,369.65 17.848,368.068 -18.47,201.883 -5.274,196.851 						"/>
						<polygon style="fill:#6F50D1;" points="-18.47,201.883 145.203,107.042 150.387,108.024 -5.274,196.851 						"/>
						<g>
							<g>
								<g>
									<defs>
										<polygon id="SVGID_00000035504864142085619790000007793769670033297833_" points="496.339,79.882 483.753,172.28 
											325.2,183.511 325.205,83.058 										"/>
									</defs>
									<clipPath id="SVGID_00000085229649393469267370000011752835100778845057_">
										<use xlink:href="#SVGID_00000035504864142085619790000007793769670033297833_"  style="overflow:visible;"/>
									</clipPath>
									<g style="clip-path:url(#SVGID_00000085229649393469267370000011752835100778845057_);">
										<polygon style="fill:#00A8C4;" points="490.11,173.909 422.729,107.2 400.497,107.208 322.473,183.511 										"/>
										<g>
											<polygon style="fill:#FFFFFF;" points="422.729,107.2 511.958,187.788 499.372,196.204 418.003,107.202 											"/>
											<polygon style="fill:#FFFFFF;" points="400.497,107.208 304.747,215.435 295.52,207.648 396.655,107.21 											"/>
											<path style="fill:#00FFFF;" d="M355.255,80.095c-0.002,27.93,24.561,50.559,54.861,50.545
												c30.301-0.012,54.867-22.661,54.867-50.59c0.004-27.933-24.563-50.56-54.861-50.549
												C379.82,29.514,355.255,52.167,355.255,80.095z"/>
											<path style="fill:#FFFFFF;" d="M370.728,81.274c-0.004,20.053,17.634,36.303,39.39,36.293
												c21.754-0.01,39.391-16.272,39.395-36.324c-0.004-20.055-17.637-36.304-39.391-36.294
												C388.364,44.958,370.728,61.224,370.728,81.274z"/>
											<path style="fill:#00CFFF;" d="M377.383,79.935c-0.002,16.663,14.653,30.167,32.737,30.159
												c18.078-0.007,32.734-13.525,32.734-30.19s-14.652-30.168-32.732-30.159C392.038,49.751,377.383,63.269,377.383,79.935z"
												/>
											<path style="fill:none;stroke:#FFFFFF;stroke-width:0.25;stroke-miterlimit:10;" d="M319.1,68.882
												c-0.002,45.24,40.746,81.899,91.016,81.876c50.268-0.021,91.022-36.715,91.022-81.955
												c0.004-45.237-40.744-81.895-91.016-81.872C359.855-13.048,319.103,23.646,319.1,68.882z M328.738,69.195
												c0-39.987,36.023-72.422,80.456-72.44c44.434-0.02,80.457,32.383,80.455,72.371
												c-0.006,39.986-36.031,72.422-80.459,72.44C364.753,141.587,328.734,109.185,328.738,69.195z"/>
											<polygon style="fill:#6F50D1;" points="482.181,85.559 470.849,170.247 464.979,170.251 477.78,85.559 											"/>
											<polygon style="fill:#6F50D1;" points="472.095,96.271 464.261,145.455 458.626,145.798 467.872,96.528 											"/>
											<polygon style="fill:#6F50D1;" points="349.676,144.499 348.009,101.472 343.762,101.473 345.845,144.499 											"/>
											<polygon style="fill:#6F50D1;" points="340.611,170.304 337.16,101.478 332.435,101.479 335.975,170.308 											"/>
											<path style="fill:#6F50D1;" d="M438.708,194.405c2.596-5.695-1.91-17.502-6.559-21.893
												c-5.281-4.996-16.619-2.572-14.012-12.369c1.844-6.92,6.814-13.871-0.561-20.503c-5.57-5.011-18.232-7.612-23.563-1.021
												c-4.021,4.97-4.146,20.442,4.188,27.576c-3.932,4.891-11.592,7.295-14.479,13.322c-2.76,5.768-3.283,12.504-2.807,18.84
												c10.378-4.414,26.608-0.447,37.745-0.465c3.814-0.006,9.129,0.885,12.803-0.006c2.859-0.693,4.889-2.625,7.603-3.982
												c-1.525-0.188-0.896-1.029-1.475-1.486"/>
										</g>
									</g>
								</g>
								<path style="opacity:0.3;fill:#6554BF;" d="M334.672,164.23c4.201-2.414,8.865-3.754,13.658-4.414
									c14.006-1.928,28.736,0.33,41.925-5.783c12.377-5.734,18.988-16.763,26.559-27.373c4.434-6.214,9.34-11.956,15.408-16.689
									c6.43-5.02,13.527-9.13,20.854-12.74c12.557-6.186,25.75-11.043,38.287-17.255l4.977-0.093l-12.586,92.399L325.2,183.511
									l0.001-9.48C327.628,170.126,330.564,166.591,334.672,164.23z"/>
							</g>
							<polygon style="opacity:0.7;fill:#FFFFFF;" points="433.536,87.085 434.202,109.97 485.202,109.97 487.151,87.085 							"/>
							<polygon style="opacity:0.7;fill:#FFFFFF;" points="331.203,155.261 331.203,175.924 376.54,175.316 376.536,154.462 							
								"/>
						</g>
						<g>
							<polygon style="fill:#00CFFF;" points="311.552,87.085 313.186,183.714 171.131,241.899 159.921,117.307 							"/>
							<g>
								<polygon style="fill:#6554BF;" points="172.242,125.711 303.466,96.189 305.575,177.328 181.575,227.513 								"/>
								<g>
									<g style="opacity:0.7;">
										<polygon style="fill:#FFFFFF;" points="225.836,144.499 238.554,140.697 236.342,115.23 223.41,118.072 										"/>
										<polygon style="fill:none;stroke:#FFFFFF;stroke-width:0.25;stroke-miterlimit:10;" points="226.054,146.878 
											227.451,162.091 240.077,158.229 238.773,143.219 										"/>
										<polygon style="fill:#FFFFFF;" points="211.962,148.648 223.81,145.105 221.196,118.558 209.436,121.143 										"/>
										<polygon style="fill:#FFFFFF;" points="194.143,124.503 196.776,153.188 209.944,149.251 207.225,121.628 
											194.143,124.503 										"/>
										<polygon style="fill:none;stroke:#FFFFFF;stroke-width:0.25;stroke-miterlimit:10;" points="196.325,173.736 
											182.428,177.786 184.064,193.087 197.87,188.925 										"/>
										<polygon style="fill:#FFFFFF;" points="212.166,150.874 213.585,166.333 225.54,162.676 224.041,147.458 										"/>
										<polygon style="fill:#FFFFFF;" points="246.098,196.629 300.686,174.964 298.731,101.52 239.083,114.627 										"/>
										<polygon style="fill:#C956EE;" points="227.233,179.882 225.79,165.226 213.803,168.698 215.168,183.573 										"/>
										<polygon style="fill:#FFFFFF;" points="240.319,161.018 227.688,164.676 229.034,179.331 241.576,175.495 										"/>
										<polygon style="fill:#FFFFFF;" points="194.752,153.793 191.917,124.993 177.131,128.242 180.524,157.591 										"/>
										<polygon style="fill:#FFFFFF;" points="242.018,180.585 229.524,184.675 231.165,202.555 243.501,197.659 										"/>
										<polygon style="fill:#FFFFFF;" points="198.783,194.737 184.732,199.336 186.953,220.102 200.742,214.629 										"/>
										<polygon style="fill:#FFFFFF;" points="227.762,185.252 215.685,189.205 217.412,208.013 229.529,203.204 										"/>
										<polygon style="fill:none;stroke:#FFFFFF;stroke-width:0.25;stroke-miterlimit:10;" points="211.683,166.915 
											210.161,151.452 196.966,155.248 198.604,170.72 										"/>
										<polygon style="fill:#FFFFFF;" points="215.792,208.656 213.934,189.778 200.538,194.163 202.358,213.988 										"/>
										<polygon style="fill:#4337A4;" points="182.229,175.924 196.501,171.558 194.953,155.827 180.524,159.979 										"/>
										<polygon style="fill:#FFFFFF;" points="211.912,169.246 198.604,173.101 199.992,188.215 213.376,184.121 										"/>
									</g>
									<polygon style="fill:#9657EC;" points="180.814,125.553 182.428,141.549 243.519,126.879 242.186,111.539 									"/>
									<path style="fill:#6554BF;" d="M290.017,140.807c-4.701-6.756-3.629-4.484-6.406-6.026
										c-1.284-0.712-2.571-1.183-3.894-1.465l-0.339-2.814c0.574-0.796,0.995-1.579,1.137-2.257
										c0.575-2.75-0.268-7.183-3.578-7.045c-5.88,0.245-8.547,9.419-6.516,13.032c-1.511,0.664-2.781,1.444-3.425,1.939
										c-0.86,0.662-1.373,2.725-1.598,5.703v0.001c-0.649,4.027-2.935,7.23-5.07,9.213c-2.136,1.983-8.971-1.544-8.971-1.544
										s-1.922-2.863-4.042-2.372c-2.119,0.492-0.23,5.238,0,5.678c0.231,0.441,10.127,6.392,17.072,4.408
										c1.179-0.336,1.969-0.802,2.509-1.294c0.263,1.495-2.221,21.414-2.221,21.414l22.891-7.288l-1.23-3.293
										c1.055-1.177,2.472-3.108,4.964-4.691c2.777-1.763,4.699-5.73,5.126-7.294
										C296.853,153.247,294.718,147.563,290.017,140.807z M284.251,159.243c-0.143,0.22-0.308,0.446-0.486,0.677l-0.582-1.559
										c0,0-1.068-3.526-0.865-5.51c0.204-1.983,1.292-7.272,1.292-7.272l6.406,7.493
										C290.017,153.072,285.533,157.259,284.251,159.243z"/>
									<polygon style="fill:#00CFFF;" points="258.562,169.722 290.716,159.061 290.806,162.469 258.562,173.329 									"/>
									<polygon style="fill:#00CFFF;" points="260.94,174.399 290.716,163.986 290.806,167.395 260.94,177.453 									"/>
									<polyline style="fill:none;stroke:#FFFFFF;stroke-width:0.25;stroke-miterlimit:10;" points="245.203,141.549 
										243.501,118.13 256.536,115.23 									"/>
									
										<line style="fill:none;stroke:#FFFFFF;stroke-width:0.25;stroke-miterlimit:10;" x1="252.713" y1="189.778" x2="296.479" y2="173.329"/>
									<path style="fill:none;stroke:#FFFFFF;stroke-width:0.25;stroke-miterlimit:10;" d="M185.995,172.779
										c-0.656-0.756-1.088-2.388-1.463-3.366c-0.491-1.281-0.797-2.78-0.675-4.112c1.017,0.472,1.421,2.426,2.104,3.425
										c-0.154-1.418-2.049-5.143-0.799-6.262c1.141,1.243,1.337,3.074,1.837,4.599c0.091-1.517-1.518-4.468-0.333-5.637
										c0.963,1.373,1.523,3.173,1.999,4.803c0.14-1.493-1.704-4.53-0.17-5.599c1.466,2.402,1.335,5.15,2.376,7.457
										c0.616-0.6,1.166-3.475,2.128-1.641c0.589,1.123-0.329,3.593-0.337,4.833"/>
									<path style="fill:none;stroke:#FFFFFF;stroke-width:0.25;stroke-miterlimit:10;" d="M222.847,172.899
										c2.133,2.125,2.934,4.779,1.79,5.928c-1.146,1.149-3.803,0.358-5.936-1.768c-2.133-2.126-2.934-4.78-1.789-5.929
										C218.057,169.981,220.714,170.773,222.847,172.899z"/>
								</g>
							</g>
							<path style="opacity:0.3;fill:#6554BF;" d="M312.304,133.101c-5.024,5.75-11.136,10.003-18.151,12.991
								c-4.194,1.787-8.708,2.766-12.705,5.004c-3.796,2.126-7.166,4.857-10.248,7.917c-5.448,5.408-10.238,11.668-16.594,16.082
								c-9.113,6.329-20.706,8.201-31.445,5.517c-10.416-2.605-18.781-8.704-24.518-17.74c-5.497-8.657-9.706-18.063-15.261-26.688
								c-5.297-8.224-12.149-16.867-22.312-18.781c-0.253-0.047-0.357-0.23-0.356-0.424l-0.792,0.158l11.21,124.593l142.056-58.186
								l-0.853-50.477C312.323,133.078,312.314,133.09,312.304,133.101z"/>
						</g>
						<g>
							<polygon style="fill:#00CFFF;" points="156.391,245.628 144.515,124.996 13.53,201.883 37.181,340.057 							"/>
							<g>
								<g>
									<polygon style="fill:#FFFFFF;" points="107.466,158.802 83.161,173.069 88.113,205.222 111.827,190.251 									"/>
									<polygon style="fill:#4F3B82;" points="96.558,277.959 92.23,250.897 67.391,267.935 71.771,296.375 									"/>
									<polygon style="fill:#FFFFFF;" points="86.251,213.505 61.478,229.543 66.335,261.08 91.195,244.424 									"/>
									<polygon style="fill:#FFFFFF;" points="117.804,233.355 94.868,249.087 99.032,276.121 121.427,259.48 									"/>
									<polygon style="fill:#4F3B82;" points="60.424,222.701 85.218,207.049 80.074,174.881 55.299,189.423 									"/>
									<polygon style="fill:#6554BF;" points="37.132,280.647 63.665,262.869 58.629,231.387 31.686,248.83 									"/>
									<polygon style="fill:#FFFFFF;" points="89.104,211.659 93.874,242.63 116.946,227.171 112.679,196.396 									"/>
									<polygon style="fill:#FFFFFF;" points="139.012,179.349 115.224,194.749 119.333,225.572 142.141,210.292 									"/>
									<polygon style="fill:#FFFFFF;" points="64.763,269.736 38.364,287.844 43.429,317.434 69.314,298.199 									"/>
									<polygon style="fill:#4F3B82;" points="120.156,231.742 123.636,257.84 145.319,241.73 142.743,216.249 									"/>
									<polygon style="fill:#6554BF;" points="114.407,188.623 138.417,173.465 135.284,142.473 110.215,157.189 									"/>
									<polygon style="fill:#FFFFFF;" points="57.532,224.527 52.208,191.238 24.602,207.443 30.452,241.622 									"/>
								</g>
								<g>
									<path style="fill:#6F50D1;" d="M38.703,221.925c1.182,1.887,0.223,4.465,0,6.666c-0.189,1.871-0.838,4.148-0.5,6
										c0.179,0.98,0.446,1.454,0.819,1.621l14.467-9.133c-1.054-2.159-2.535-3.771-4.536-5.238
										c-2.846-2.087-2.259-3.979-2.25-7.5c0.008-3.049-1.12-5.966-3.987-7.749c-2.013-1.251-5.564-0.107-6.846,1.569
										c-2.11,2.759-1.823,8.001-0.68,10.942C35.796,220.665,37.831,220.534,38.703,221.925z"/>
									<path style="fill:#6F50D1;" d="M34.953,213.175c-6.583,2.079-3.253,10.081,2.198,7.164L34.953,213.175z"/>
									<path style="fill:#6F50D1;" d="M32.703,216.091c-1.622-4.691-0.018-9.73,4.444-12.063c3.834-2.003,8.541-0.671,9.838,4.133
										c-0.263,0.101-0.871-0.055-1.116,0c-2.407-3.632-5.695-4.997-9.361-2.515c-3.917,2.653-3.943,6.209-3.149,10.407
										c-0.287,0.017-0.571,0.013-0.863,0c-0.217-0.513-0.391-1.147-0.294-1.712"/>
									<path style="fill:#6F50D1;" d="M44.87,209.091c0.447,2.431,0.699,4.605,1.25,7c6.866,0.898,1.632-12.757-2.226-8.25
										L44.87,209.091z"/>
								</g>
								<g>
									<path style="fill:#6F50D1;" d="M125.011,209.895c0.987,1.575,0.186,3.728,0,5.566c-0.158,1.563-0.7,3.463-0.417,5.01
										c0.149,0.818,0.372,1.214,0.684,1.354l12.079-7.626c-0.88-1.803-2.117-3.148-3.787-4.374
										c-2.376-1.743-1.886-3.323-1.879-6.262c0.007-2.546-0.935-4.982-3.329-6.47c-1.68-1.045-4.646-0.089-5.716,1.311
										c-1.762,2.304-1.522,6.68-0.567,9.136C122.584,208.843,124.283,208.733,125.011,209.895z"/>
									<path style="fill:#6F50D1;" d="M121.88,202.589c-5.497,1.736-2.716,8.417,1.835,5.981L121.88,202.589z"/>
									<path style="fill:#6F50D1;" d="M120.001,205.024c-1.355-3.917-0.016-8.124,3.711-10.072
										c3.201-1.673,7.131-0.561,8.214,3.451c-0.219,0.084-0.728-0.046-0.932,0c-2.009-3.033-4.755-4.172-7.816-2.1
										c-3.271,2.215-3.292,5.185-2.629,8.689c-0.239,0.014-0.477,0.011-0.721,0c-0.182-0.428-0.327-0.958-0.245-1.43"/>
									<path style="fill:#6F50D1;" d="M130.16,199.18c0.373,2.03,0.584,3.845,1.043,5.845c5.733,0.749,1.363-10.651-1.859-6.889
										L130.16,199.18z"/>
								</g>
								<g style="opacity:0.4;">
									<path style="fill:#00CFFF;" d="M72.639,242.703c1.182,1.887,0.223,4.465,0,6.667c-0.189,1.871-0.838,4.148-0.5,5.999
										c0.179,0.981,0.446,1.455,0.819,1.621l14.467-9.132c-1.054-2.159-2.535-3.77-4.536-5.238
										c-2.846-2.087-2.259-3.979-2.25-7.5c0.008-3.049-1.12-5.966-3.987-7.749c-2.013-1.251-5.564-0.106-6.846,1.569
										c-2.11,2.759-1.823,8.001-0.68,10.942C69.733,241.444,71.768,241.312,72.639,242.703z"/>
									<path style="fill:#00CFFF;" d="M68.89,233.953c-6.583,2.079-3.253,10.081,2.198,7.164L68.89,233.953z"/>
									<path style="fill:#00CFFF;" d="M66.639,236.87c-1.623-4.691-0.019-9.73,4.444-12.063c3.834-2.003,8.541-0.671,9.838,4.133
										c-0.263,0.101-0.871-0.055-1.116,0c-2.407-3.632-5.695-4.997-9.361-2.515c-3.918,2.653-3.943,6.21-3.149,10.407
										c-0.287,0.017-0.571,0.013-0.863,0c-0.217-0.513-0.391-1.147-0.293-1.712"/>
									<path style="fill:#00CFFF;" d="M78.806,229.87c0.447,2.431,0.699,4.605,1.25,7c6.866,0.898,1.632-12.757-2.227-8.25
										L78.806,229.87z"/>
								</g>
								<g style="opacity:0.4;">
									<path style="fill:#00CFFF;" d="M51.919,298.435c1.081,1.725,0.204,4.08,0,6.094c-0.173,1.709-0.766,3.791-0.457,5.482
										c0.164,0.897,0.408,1.33,0.749,1.482l13.223-8.348c-0.964-1.973-2.317-3.445-4.145-4.787
										c-2.602-1.908-2.065-3.639-2.057-6.855c0.007-2.787-1.023-5.453-3.645-7.082c-1.84-1.145-5.085-0.098-6.257,1.434
										c-1.929,2.522-1.667,7.313-0.621,10.002C49.263,297.285,51.123,297.164,51.919,298.435z"/>
									<path style="fill:#00CFFF;" d="M48.493,290.438c-6.018,1.9-2.973,9.215,2.009,6.547L48.493,290.438z"/>
									<path style="fill:#00CFFF;" d="M46.436,293.103c-1.483-4.287-0.017-8.893,4.062-11.025
										c3.505-1.832,7.807-0.613,8.993,3.777c-0.24,0.092-0.796-0.051-1.02,0c-2.2-3.32-5.205-4.566-8.556-2.299
										c-3.581,2.426-3.604,5.676-2.879,9.512c-0.262,0.016-0.522,0.014-0.789,0c-0.198-0.469-0.357-1.047-0.268-1.564"/>
									<path style="fill:#00CFFF;" d="M57.556,286.705c0.409,2.223,0.639,4.209,1.143,6.398c6.275,0.82,1.492-11.66-2.035-7.541
										L57.556,286.705z"/>
								</g>
								<g style="opacity:0.4;">
									<path style="fill:#00CFFF;" d="M99.328,224.955c1.182,1.887,0.223,4.465,0,6.667c-0.189,1.871-0.838,4.147-0.5,6
										c0.179,0.98,0.446,1.454,0.819,1.621l14.467-9.133c-1.054-2.159-2.535-3.77-4.536-5.238c-2.846-2.087-2.259-3.979-2.25-7.5
										c0.008-3.049-1.12-5.966-3.987-7.749c-2.013-1.251-5.564-0.107-6.846,1.569c-2.11,2.759-1.823,8.001-0.68,10.942
										C96.421,223.696,98.456,223.564,99.328,224.955z"/>
									<path style="fill:#00CFFF;" d="M95.578,216.205c-6.583,2.079-3.253,10.081,2.198,7.164L95.578,216.205z"/>
									<path style="fill:#00CFFF;" d="M93.328,219.122c-1.623-4.691-0.019-9.73,4.444-12.063c3.834-2.003,8.541-0.671,9.838,4.133
										c-0.263,0.101-0.871-0.055-1.116,0c-2.407-3.632-5.695-4.997-9.361-2.515c-3.917,2.653-3.943,6.21-3.149,10.407
										c-0.287,0.017-0.571,0.013-0.863,0c-0.217-0.513-0.391-1.147-0.293-1.712"/>
									<path style="fill:#00CFFF;" d="M105.495,212.122c0.447,2.431,0.699,4.605,1.25,7c6.866,0.897,1.632-12.757-2.227-8.25
										L105.495,212.122z"/>
								</g>
								<g style="opacity:0.4;">
									<path style="fill:#00CFFF;" d="M107.236,259.346c0.911,1.453,0.172,3.439,0,5.135c-0.146,1.441-0.646,3.195-0.385,4.623
										c0.138,0.756,0.343,1.121,0.631,1.25l11.146-7.037c-0.813-1.664-1.953-2.904-3.495-4.035
										c-2.193-1.608-1.74-3.066-1.733-5.777c0.006-2.35-0.863-4.598-3.072-5.971c-1.551-0.964-4.287-0.082-5.274,1.209
										c-1.626,2.126-1.405,6.165-0.523,8.43C104.997,258.375,106.565,258.273,107.236,259.346z"/>
									<path style="fill:#00CFFF;" d="M104.348,252.604c-5.072,1.602-2.506,7.768,1.693,5.519L104.348,252.604z"/>
									<path style="fill:#00CFFF;" d="M102.614,254.852c-1.25-3.613-0.014-7.497,3.424-9.293c2.954-1.544,6.58-0.518,7.58,3.184
										c-0.203,0.078-0.671-0.042-0.86,0c-1.854-2.798-4.387-3.85-7.212-1.937c-3.018,2.043-3.038,4.783-2.426,8.018
										c-0.221,0.014-0.44,0.01-0.665,0c-0.168-0.395-0.301-0.883-0.226-1.318"/>
									<path style="fill:#00CFFF;" d="M111.988,249.458c0.344,1.874,0.539,3.548,0.963,5.394c5.289,0.691,1.257-9.829-1.715-6.356
										L111.988,249.458z"/>
								</g>
								<g>
									<path style="fill:#6F50D1;" d="M64.008,201.75c-0.494-1.068-0.741-2.299-0.65-3.595c0.262-3.732,3.182-6.566,6.521-6.332
										c2.539,0.179,4.586,2.083,5.307,4.626l1.013-0.481c-0.999-2.805-3.361-4.86-6.255-5.064
										c-4.047-0.285-7.586,3.151-7.904,7.675c-0.096,1.364,0.117,2.668,0.564,3.836L64.008,201.75z"/>
									<path style="fill:#6F50D1;" d="M67.669,204.847c0,2.072-1.499,3.752-3.35,3.752c-1.85,0-3.35-1.68-3.35-3.752
										c0-2.072,1.5-3.751,3.35-3.751C66.169,201.096,67.669,202.775,67.669,204.847z"/>
									<path style="fill:#6F50D1;" d="M79.548,199.04c0,2.072-1.5,3.752-3.35,3.752s-3.35-1.68-3.35-3.752
										c0-2.072,1.499-3.751,3.35-3.751S79.548,196.968,79.548,199.04z"/>
								</g>
								<g>
									<path style="fill:#6F50D1;" d="M93.909,185.418c-0.494-1.068-0.741-2.299-0.65-3.595c0.262-3.732,3.182-6.566,6.521-6.332
										c2.539,0.179,4.586,2.083,5.307,4.626l1.013-0.481c-0.999-2.805-3.361-4.86-6.255-5.063
										c-4.047-0.285-7.585,3.151-7.904,7.675c-0.096,1.364,0.117,2.668,0.564,3.836L93.909,185.418z"/>
									<path style="fill:#6F50D1;" d="M97.57,188.515c0,2.072-1.5,3.752-3.35,3.752s-3.35-1.68-3.35-3.752
										c0-2.072,1.5-3.751,3.35-3.751S97.57,186.443,97.57,188.515z"/>
									<path style="fill:#6F50D1;" d="M109.449,182.708c0,2.072-1.499,3.752-3.35,3.752c-1.85,0-3.35-1.68-3.35-3.752
										c0-2.072,1.499-3.751,3.35-3.751C107.95,178.956,109.449,180.636,109.449,182.708z"/>
								</g>
								<g>
									<path style="fill:#6F50D1;" d="M129.047,240.65c-0.446-0.965-0.67-2.077-0.587-3.248c0.237-3.372,2.874-5.933,5.892-5.721
										c2.294,0.161,4.144,1.882,4.794,4.18l0.915-0.434c-0.903-2.535-3.037-4.391-5.652-4.575
										c-3.657-0.257-6.854,2.847-7.141,6.934c-0.086,1.232,0.105,2.411,0.51,3.466L129.047,240.65z"/>
									<path style="fill:#6F50D1;" d="M132.355,243.448c0,1.873-1.354,3.39-3.026,3.39c-1.671,0-3.026-1.518-3.026-3.39
										c0-1.872,1.355-3.389,3.026-3.389C131.001,240.059,132.355,241.576,132.355,243.448z"/>
									<path style="fill:#6F50D1;" d="M143.088,238.202c0,1.872-1.355,3.39-3.026,3.39s-3.026-1.518-3.026-3.39
										c0-1.872,1.355-3.39,3.026-3.39S143.088,236.33,143.088,238.202z"/>
								</g>
								<g>
									<path style="fill:#C956EE;" d="M43.209,258.24c-0.494-1.068-0.741-2.299-0.65-3.596c0.262-3.731,3.182-6.566,6.521-6.331
										c2.539,0.179,4.586,2.083,5.307,4.626l1.013-0.48c-0.999-2.806-3.361-4.861-6.255-5.064
										c-4.047-0.285-7.585,3.152-7.904,7.676c-0.096,1.363,0.117,2.668,0.564,3.836L43.209,258.24z"/>
									<path style="fill:#C956EE;" d="M46.87,261.336c0,2.072-1.499,3.752-3.35,3.752s-3.35-1.68-3.35-3.752
										c0-2.072,1.5-3.75,3.35-3.75S46.87,259.264,46.87,261.336z"/>
									<path style="fill:#C956EE;" d="M58.749,255.529c0,2.072-1.5,3.752-3.35,3.752c-1.85,0-3.35-1.68-3.35-3.752
										c0-2.07,1.5-3.75,3.35-3.75C57.25,251.779,58.749,253.459,58.749,255.529z"/>
								</g>
								<g>
									<path style="fill:#C956EE;" d="M119.455,170.425c-0.494-1.068-0.741-2.299-0.65-3.595c0.262-3.731,3.182-6.566,6.521-6.332
										c2.539,0.179,4.586,2.083,5.307,4.626l1.013-0.481c-0.999-2.805-3.361-4.86-6.255-5.064
										c-4.047-0.285-7.585,3.151-7.904,7.675c-0.096,1.364,0.117,2.668,0.564,3.836L119.455,170.425z"/>
									<path style="fill:#C956EE;" d="M123.116,173.523c0,2.072-1.499,3.752-3.35,3.752c-1.85,0-3.35-1.68-3.35-3.752
										c0-2.072,1.499-3.752,3.35-3.752C121.617,169.771,123.116,171.45,123.116,173.523z"/>
									<path style="fill:#C956EE;" d="M134.995,167.715c0,2.072-1.5,3.752-3.35,3.752s-3.35-1.68-3.35-3.752
										c0-2.072,1.499-3.751,3.35-3.751S134.995,165.644,134.995,167.715z"/>
								</g>
								<g>
									<path style="fill:#C956EE;" d="M76.91,275.643c-0.494-1.068-0.741-2.299-0.65-3.596c0.262-3.73,3.182-6.566,6.521-6.332
										c2.539,0.18,4.586,2.084,5.307,4.627l1.013-0.48c-0.999-2.807-3.361-4.861-6.255-5.064
										c-4.047-0.285-7.585,3.152-7.904,7.676c-0.096,1.363,0.117,2.668,0.564,3.836L76.91,275.643z"/>
									<path style="fill:#C956EE;" d="M80.571,278.74c0,2.072-1.499,3.752-3.35,3.752c-1.85,0-3.35-1.68-3.35-3.752
										c0-2.072,1.499-3.752,3.35-3.752C79.072,274.988,80.571,276.668,80.571,278.74z"/>
									<path style="fill:#C956EE;" d="M92.45,272.932c0,2.072-1.499,3.752-3.35,3.752c-1.85,0-3.35-1.68-3.35-3.752
										c0-2.07,1.499-3.75,3.35-3.75C90.951,269.182,92.45,270.861,92.45,272.932z"/>
								</g>
							</g>
							<path style="opacity:0.3;fill:#6554BF;" d="M142.936,214.606c-7.786,2.233-13.507,7.811-19.571,12.871
								c-4.566,3.809-9.295,7.603-14.685,10.192c-5.522,2.653-11.434,4.03-17.541,4.411c-12.752,0.794-25.897-1.878-37.357-7.538
								c-5.051-2.495-9.875-5.489-13.984-9.369c-3.761-3.552-7.096-7.504-10.588-11.313c-4.546-4.958-9.563-9.722-15.524-12.068
								l-0.155,0.091l23.651,138.173l119.21-94.429l-3.071-31.193C149.977,213.468,146.211,213.666,142.936,214.606z"/>
						</g>
					</g>
				</g>
				<g>
					<g>
						<path style="fill:#212041;" d="M493.036,462.035c13.073,4.31,61.833,28.098,73.794,42.494
							c6.835,8.227,10.222,14.148,0.943,13.385c-3.986-0.323-10.419-6.578-14.238-8.505c-11.342-5.726-23.696-13.405-34.878-18.808
							c-16.533-7.988-36.527,2.904-33.811-14.573L493.036,462.035z"/>
						<g>
							<path style="fill:#212041;" d="M547.397,522.642c-0.646,6.629,4.247,12.521,10.927,13.162
								c6.685,0.638,12.623-4.215,13.268-10.84c0.646-6.628-4.246-12.519-10.928-13.157
								C553.984,511.165,548.042,516.016,547.397,522.642z"/>
							<path style="fill:#4337A4;" d="M558.888,516.474c2.965,0.285,5.39,2.155,6.51,4.681c-1.166-0.93-2.603-1.545-4.203-1.697
								c-4.366-0.418-8.253,2.754-8.673,7.086c-0.137,1.392,0.106,2.729,0.634,3.923c-2.02-1.606-3.211-4.158-2.942-6.904
								C550.634,519.227,554.519,516.056,558.888,516.474z"/>
						</g>
						<path style="fill:#212041;" d="M477.814,460.576c-13.76-0.699-67.901,3.874-84.321,12.969
							c-9.383,5.201-14.708,9.492-5.786,12.13c3.834,1.134,12.117-2.372,16.383-2.79c12.664-1.24,26.988-3.936,39.382-4.937
							c18.333-1.48,32.965,15.878,36.843-1.384L477.814,460.576z"/>
						<g>
							<path style="fill:#212041;" d="M377.793,491.987c-0.646,6.624,4.248,12.517,10.929,13.157
								c6.681,0.641,12.621-4.213,13.265-10.841c0.647-6.622-4.245-12.516-10.927-13.155
								C384.377,480.506,378.436,485.361,377.793,491.987z"/>
							<path style="fill:#4337A4;" d="M389.282,485.817c2.967,0.283,5.393,2.15,6.51,4.678c-1.163-0.927-2.604-1.543-4.2-1.696
								c-4.369-0.42-8.253,2.753-8.674,7.086c-0.137,1.393,0.105,2.73,0.633,3.924c-2.019-1.609-3.209-4.157-2.942-6.907
								C381.031,488.568,384.915,485.397,389.282,485.817z"/>
						</g>
						<g>
							<path style="fill:#212041;" d="M486.95,541.07c-0.648,6.625,4.246,12.518,10.927,13.158c6.681,0.64,12.62-4.211,13.267-10.84
								c0.646-6.626-4.247-12.517-10.926-13.157C493.535,529.59,487.594,534.442,486.95,541.07z"/>
							<path style="fill:#4337A4;" d="M498.439,534.898c2.967,0.285,5.389,2.157,6.511,4.683c-1.166-0.93-2.605-1.545-4.204-1.699
								c-4.368-0.42-8.252,2.754-8.674,7.088c-0.135,1.392,0.106,2.728,0.637,3.923c-2.021-1.61-3.212-4.16-2.943-6.906
								C490.188,537.652,494.071,534.481,498.439,534.898z"/>
						</g>
						<g>
							<path style="fill:#212041;" d="M427.241,532.258c-0.645,6.624,4.249,12.515,10.929,13.155
								c6.681,0.642,12.621-4.209,13.266-10.838c0.647-6.626-4.246-12.517-10.927-13.159
								C433.827,520.776,427.888,525.629,427.241,532.258z"/>
							<path style="fill:#4337A4;" d="M438.73,526.087c2.968,0.285,5.392,2.151,6.513,4.679c-1.167-0.927-2.605-1.541-4.201-1.697
								c-4.37-0.418-8.253,2.754-8.676,7.087c-0.136,1.393,0.105,2.73,0.636,3.924c-2.022-1.609-3.212-4.158-2.945-6.908
								C430.478,528.841,434.364,525.665,438.73,526.087z"/>
						</g>
						<path style="fill:#212041;" d="M492.882,470.813c0,0,3.932,8.998,9.13,33.798c5.195,24.801,4.559,32.143,4.559,32.143
							l-10.263,2.123c0,0-1.054-5.8-7.852-22.651c-6.797-16.852-14.906-28.796-12.959-35.175
							C477.442,474.666,492.882,470.813,492.882,470.813z"/>
						<path style="fill:#212041;" d="M462.053,466.197c0,0-5.595,8.079-15.485,31.438c-9.891,23.355-10.683,30.682-10.683,30.682
							l9.664,4.032c0,0,2.152-5.492,12.078-20.739c9.927-15.25,20.19-25.434,19.513-32.065
							C476.461,472.91,462.053,466.197,462.053,466.197z"/>
					</g>
					<g>
						<g>
							<path style="fill:#212041;" d="M511.578,317.645c-5.523-3.365-12.091-5.773-18.568-7.825
								c-7.019-2.22-14.212-4.072-21.454-5.642c-6.383-1.386-12.786-2.425-19.147-3.919c-3.727-0.876-7.456-1.76-11.218-2.497
								c-3.137-0.615-6.564-1.413-9.735-1.541c-1.487-0.059-2.949-0.004-4.402,0.103c0.849-3.517,3.103-6.884,5.944-8.467
								c4.892-2.732,19.017,0.296,25.736,1.853c10.754,2.485,21.388,5.845,31.97,8.86c4.924,1.404,18.559,5.114,20.442,6.32
								c6.005,3.845,7.899,12.984,6.457,18.569C516.554,321.352,514.375,319.353,511.578,317.645z"/>
							<path style="fill:#212041;" d="M430.909,295.887c7.036,0.289,14.628,2.436,21.507,4.051
								c6.38,1.494,12.801,2.529,19.199,3.929c7.258,1.586,14.488,3.414,21.521,5.66c7.632,2.436,22.604,7.578,24.479,14.119
								c-0.023,0.066-0.047,0.137-0.072,0.199c-3.128,7.683-10.933,8.908-22.202,5.545c-12.131-3.618-24.599-8.315-36.554-12.34
								c-8.767-2.951-25.23-7.078-30.347-13.561c-1.613-2.041-1.953-4.8-1.427-7.52
								C428.294,295.879,429.591,295.837,430.909,295.887z"/>
							<path style="fill:#242470;" d="M432.997,287.856c0,0,29.783,4.163,35.518,7.01c5.733,2.849,3.957,4.834-2.235,3.451
								c-6.192-1.386-25.314-6.442-28.495-6.284c-3.178,0.155,2.42,4.688-0.117,4.603c-2.535-0.087-10.655-0.668-10.655-0.668
								s0.449-2.188,1.969-4.154C430.501,289.844,432.997,287.856,432.997,287.856z"/>
						</g>
						<path style="fill:#212041;" d="M441.048,394.158c2.227-5.382,4.61-11.311,6.663-17.258c6.23-18.061,21.066-63.31,21.066-63.31
							l17.342,3.98c0,0-9.153,53.618-18.171,82.475C459.595,403.755,448.472,400.599,441.048,394.158z"/>
					</g>
					<g>
						<path style="fill:#4337A4;" d="M534.596,365.51c0,0-3.233,1.436-21.924-2.102c-18.694-3.54-36.8-19.449-59.906-28.408
							c-26.961-10.456-45.32-13.165-54.932-0.301c-9.609,12.865-7.299,22.148-12.307,47.119c-5.002,24.969-11.433,31.574-3.99,40.96
							c7.442,9.383,86.254,5.377,115.909,11.11c29.654,5.733,48.841,19.925,56.362,8.69c7.523-11.234-6.364-49.639-11.202-57.936
							C537.765,376.349,534.596,365.51,534.596,365.51z"/>
						<path style="fill:#6F50D1;" d="M452.417,336.712c7.577,5.252,14.716,11.436,20.321,18.767
							c4.515,5.91,8.965,13.454,8.223,21.173c-0.828,8.631-8.098,14.071-15.688,17.105c-17.411,6.959-36.196,4.624-54.141,1.338
							c-8.888-1.628-18.283-3.771-27.611-4.364c0.672-2.69,1.352-5.641,2.006-8.912c5.008-24.972,2.697-34.254,12.307-47.119
							c8.714-11.666,24.614-10.525,47.598-2.421C447.83,333.666,450.166,335.151,452.417,336.712z"/>
						<g>
							<path style="fill:none;stroke:#212041;stroke-width:0.5;stroke-miterlimit:10;" d="M433.383,335.125
								c-8.846,6.529-19.031,14.083-26.45,22.455c5.732,8.205,7.833,23.015,10.788,31.22"/>
							<path style="fill:none;stroke:#212041;stroke-width:0.5;stroke-miterlimit:10;" d="M441.23,341.069
								c-2.55,1.826-21.073,17.288-21.073,17.288s7.425,17.806,8.395,26.408c-0.233,1.142,0.107-1.653,0.077-1.057"/>
							<path style="fill:none;stroke:#212041;stroke-width:0.5;stroke-miterlimit:10;" d="M457.927,342.671
								c-2.55,1.826-24.544,15.686-24.544,15.686s10.896,19.405,11.87,28.01c-0.235,1.142,0.106-1.655,0.075-1.059"/>
						</g>
					</g>
					<g>
						<g>
							<path style="fill:#242470;" d="M531.672,313.018c7.748-12.223,16.031-13.131,27.795-21.756
								c11.767-8.626,34.758-25.928,41.835-36.903c7.079-10.973,5.853-37.631,7.701-50.999c1.849-13.367,7.139-17.195,13.746-21.98
								c6.604-4.784,41.488-9.585,41.488-9.585s-2.711,9.684-6.198,21.1c0.262-1.406,0.201-3.77,0.201-3.77s-20.723-2.39-25.3,1.97
								c-5.077,4.835-7.778,22.312-3.337,27.727c2.921,3.563,17.802,5.088,17.802,5.088c-0.749,1.71-1.434,3.082-2.028,4.009
								c-5.561,8.63-114.486,137.236-114.486,137.236s-1.588-7.141-4.977-17.216C522.526,337.861,523.928,325.238,531.672,313.018z"
								/>
							<path style="fill:#242470;" d="M657.795,193.686c-3.358,10.966-7.383,23.34-10.39,30.22
								C647.424,223.847,657.261,194.64,657.795,193.686L657.795,193.686z"/>
						</g>
						<path style="fill:#212041;" d="M529.533,312.81c7.748-12.221,16.028-13.129,27.795-21.755
							c11.763-8.627,34.755-25.929,41.835-36.9c7.078-10.976,5.852-37.633,7.701-51.002c1.847-13.368,7.138-17.195,13.744-21.979
							c6.605-4.785,41.489-9.586,41.489-9.586s-0.068,0.243-0.191,0.681c-8.49,1.266-33.146,5.219-38.592,9.164
							c-6.606,4.785-11.896,8.613-13.746,21.98c-1.848,13.368-0.622,40.025-7.701,51.001c-7.077,10.971-30.068,28.275-41.834,36.9
							c-11.764,8.625-20.047,9.534-27.794,21.756c-7.747,12.225-9.147,24.844-5.76,34.921c2.145,6.38,3.566,11.575,4.321,14.533
							c-1.323,1.564-2.052,2.425-2.052,2.425s-1.587-7.139-4.976-17.216C520.386,337.652,521.788,325.032,529.533,312.81z"/>
						<g style="opacity:0.3;">
							<path style="fill:#242470;" d="M551.323,309.036c4.725-4.083,10.125-7.272,15.359-10.66
								c6.181-4.002,12.362-8.006,18.544-12.008c9.691-6.276,17.497-14.269,23.587-24.028c2.976-4.773,5.556-9.751,8.326-14.638
								c2.569-4.528,6.14-8.177,10.923-10.389c4.766-2.203,9.776-3.46,14.394-5.517c-18.403,23.364-111.565,133.358-111.565,133.358
								s-0.712-3.189-2.186-8.298C531.357,338.679,537.034,321.388,551.323,309.036z"/>
							<path style="fill:#553D8B;" d="M657.795,193.686c-3.358,10.966-7.383,23.34-10.39,30.22
								C647.424,223.847,657.261,194.64,657.795,193.686L657.795,193.686z"/>
						</g>
					</g>
					<g>
						<path style="fill:#4337A4;" d="M694.151,116.188c8.164-2.773,32.077,5.158,33.844,15.08
							c1.764,9.923-9.977,55.238-26.093,77.146c-16.117,21.908-30.893,47.968-39.238,60.715
							c-8.342,12.743-7.711,23.098-24.522,44.244c-16.811,21.144-38.189,45.575-63.798,60.492
							c-25.612,14.913-29.297,25.94-33.855,22.252c-4.556-3.686-9.716-24.717-9.599-30.963c0.115-6.246,28.523-35.954,41.627-51.031
							c13.102-15.074,39.745-71.541,47.13-80.023c7.38-8.482,15.397-6.676,19.21-6.559c3.813,0.118,12.854-14.186,16.225-26.326
							c3.367-12.139,7.601-33.173,17.429-49.956C682.34,134.478,683.41,119.841,694.151,116.188z"/>
						<path style="fill:#6F50D1;" d="M699.606,143.415c0.294,12.724-3.768,25.436-8.678,37.053
							c-3.019,7.146-6.481,14.122-10.468,20.788c-3.346,5.596-7.16,10.935-12.313,15.052c-4.893,3.914-10.724,6.88-17.066,7.462
							c-2.423,0.22-4.799,0.116-7.126-0.244c4.071-5.092,8.868-14.184,11.126-22.312c3.367-12.139,7.601-33.173,17.429-49.956
							c7.563-12.912,9.946-24.549,15.532-30.895C698.053,120.743,699.436,136.006,699.606,143.415z"/>
						<path style="fill:#6F50D1;" d="M616.94,292.056c-8.82,18.3-21.31,36.245-36.981,49.43
							c-10.379,8.731-21.868,16.323-34.044,22.365c-4.683,2.324-9.547,4.52-14.548,6.322c-0.326-2.067-0.499-3.817-0.477-5.019
							c0.115-6.246,28.523-35.954,41.627-51.031c11.529-13.267,33.551-58.592,43.695-75.052
							C631.231,252.882,624.784,275.78,616.94,292.056z"/>
						<path style="fill:none;stroke:#212041;stroke-width:0.5;stroke-miterlimit:10;" d="M707.566,133.103
							c-7.164,5.223-18.366,27.097-21.606,33.929c-5.357,11.294-10.137,24.508-13.104,36.433"/>
						<path style="fill:none;stroke:#212041;stroke-width:0.5;stroke-miterlimit:10;" d="M691.785,129.21
							c-7.166,5.226-12.902,21.198-16.143,28.032c-5.358,11.293-10.137,24.508-13.105,36.432"/>
						<path style="fill:none;stroke:#212041;stroke-width:0.5;stroke-miterlimit:10;" d="M674.128,218.753
							c-2.649-2.66-17.972-11.809-20.549-13.347"/>
						<path style="fill:none;stroke:#212041;stroke-width:0.5;stroke-miterlimit:10;" d="M665.942,229.89
							c-4.704-2.046-13.611-9.989-17.829-12.545"/>
						<path style="fill:none;stroke:#212041;stroke-width:0.5;stroke-miterlimit:10;" d="M658.938,250.368
							c-11.482-4.395-16.837-10.931-21.744-21.629"/>
						<path style="fill:none;stroke:#212041;stroke-width:0.5;stroke-miterlimit:10;" d="M639.935,283.746
							c-9.932-1.577-18.574-5.008-27.584-7.602c-1.23-9.25-2.396-16.11-2.708-23.477"/>
						<path style="fill:none;stroke:#212041;stroke-width:0.5;stroke-miterlimit:10;" d="M627.272,305.938
							c-9.931-1.574-18.573-5.004-27.585-7.602c-1.231-9.245-2.394-16.11-2.711-23.475"/>
						<g>
							<path style="fill:#242470;" d="M613.57,328.011l-25.853-6.813l-6.151-19.642c0,0-26.354,31.105-34.771,38.989
								c-8.415,7.887-15.922,22.308-17.974,24.732c-2.054,2.423,2.883,15.757,7.294,23.138c4.413,7.38,48.564-27.419,56.874-34.207
								C601.299,347.424,613.57,328.011,613.57,328.011z"/>
							<g>
								<defs>
									<path id="SVGID_00000022521960905315293240000012882107552391301777_" d="M613.57,328.011l-25.853-6.813l-6.151-19.642
										c0,0-26.354,31.105-34.771,38.989c-8.415,7.887-15.922,22.308-17.974,24.732c-2.054,2.423,2.883,15.757,7.294,23.138
										c4.413,7.38,48.564-27.419,56.874-34.207C601.299,347.424,613.57,328.011,613.57,328.011z"/>
								</defs>
								<clipPath id="SVGID_00000100365229214102226170000015853308455611152319_">
									<use xlink:href="#SVGID_00000022521960905315293240000012882107552391301777_"  style="overflow:visible;"/>
								</clipPath>
								<g style="clip-path:url(#SVGID_00000100365229214102226170000015853308455611152319_);">
									<line style="fill:none;stroke:#6554BF;stroke-miterlimit:10;" x1="603.082" y1="312.318" x2="604.285" y2="358.53"/>
									<line style="fill:none;stroke:#6554BF;stroke-miterlimit:10;" x1="596.164" y1="313.859" x2="597.371" y2="360.071"/>
									<line style="fill:none;stroke:#6554BF;stroke-miterlimit:10;" x1="590.631" y1="311.125" x2="590.394" y2="372.127"/>
									<line style="fill:none;stroke:#6554BF;stroke-miterlimit:10;" x1="582.623" y1="297.633" x2="583.585" y2="375.643"/>
									<line style="fill:none;stroke:#6554BF;stroke-miterlimit:10;" x1="573.41" y1="304.276" x2="574.373" y2="382.287"/>
									<line style="fill:none;stroke:#6554BF;stroke-miterlimit:10;" x1="565.946" y1="310.963" x2="566.91" y2="388.973"/>
									<line style="fill:none;stroke:#6554BF;stroke-miterlimit:10;" x1="556.984" y1="315.035" x2="557.947" y2="393.047"/>
									<line style="fill:none;stroke:#6554BF;stroke-miterlimit:10;" x1="547.95" y1="319.86" x2="548.913" y2="397.869"/>
									<line style="fill:none;stroke:#6554BF;stroke-miterlimit:10;" x1="539.329" y1="320.44" x2="540.293" y2="398.451"/>
									<line style="fill:none;stroke:#6554BF;stroke-miterlimit:10;" x1="530.429" y1="323.87" x2="531.393" y2="401.877"/>
								</g>
								<g style="clip-path:url(#SVGID_00000100365229214102226170000015853308455611152319_);">
									<line style="fill:none;stroke:#6554BF;stroke-miterlimit:10;" x1="583.756" y1="277.167" x2="534.48" y2="323.19"/>
									<line style="fill:none;stroke:#6554BF;stroke-miterlimit:10;" x1="586.614" y1="284.012" x2="537.337" y2="330.034"/>
									<line style="fill:none;stroke:#6554BF;stroke-miterlimit:10;" x1="593.065" y1="285.454" x2="529.198" y2="347.601"/>
									<line style="fill:none;stroke:#6554BF;stroke-miterlimit:10;" x1="612.409" y1="277.86" x2="529.917" y2="356.364"/>
									<line style="fill:none;stroke:#6554BF;stroke-miterlimit:10;" x1="611.396" y1="291.638" x2="528.904" y2="370.143"/>
									<line style="fill:none;stroke:#6554BF;stroke-miterlimit:10;" x1="609.208" y1="304.122" x2="526.716" y2="382.628"/>
									<line style="fill:none;stroke:#6554BF;stroke-miterlimit:10;" x1="610.731" y1="315.099" x2="528.239" y2="393.603"/>
									<line style="fill:none;stroke:#6554BF;stroke-miterlimit:10;" x1="611.517" y1="326.892" x2="529.026" y2="405.393"/>
									<line style="fill:none;stroke:#6554BF;stroke-miterlimit:10;" x1="616.486" y1="334.059" x2="533.995" y2="412.563"/>
									<line style="fill:none;stroke:#6554BF;stroke-miterlimit:10;" x1="618.644" y1="344.332" x2="536.155" y2="422.835"/>
								</g>
							</g>
						</g>
					</g>
					<g>
						<path style="fill:#242470;" d="M716.302,178.37c-1.484,9.132-5.471,18.068-9.164,26.753c-3.68,8.649-6.42,17.759-10.243,26.68
							c-6.822,15.921-8.595,33.918-9.403,51.625c-0.936,20.53-7.314,37.593-18.862,54.662c-5.457,8.067-25.336,40.117-30.462,47.75
							c-5.21,7.763-10.257,15.893-15.407,23.717c-13.938,21.169-45.919,55.239-72.177,34.532c-3.57-2.814-6.229-6.334-9.475-9.452
							c-3.21-3.086-7.575-5.266-9.894-9.186c-5.569-9.414-0.326-18.422,6.084-25.87c12.215-14.184,28.316-23.047,42.853-34.876
							c19.058-15.51,37.476-30.411,51.389-50.895c5.994-8.82,11.996-19.202,15.8-28.815c4.047-10.216,7.893-20.422,14.466-29.494
							c14.906-20.561,31.288-40.117,42.719-63.092c2.257-4.534,6.615-12.784,11.189-14.568"/>
						<path style="fill:#212041;" d="M537.299,399.58c5.426-6.302,11.621-11.552,18.104-16.478
							c9.2,6.596,20.449,10.577,31.815,9.571c13.69-1.208,24.695-9.684,33.78-19.371c9.816-10.465,17.586-22.544,25.216-34.615
							c11.944-18.897,18.076-47.046,41.302-55.817l0.003-0.002c-0.007,0.186-0.019,0.374-0.027,0.559
							c-0.936,20.53-7.314,37.593-18.862,54.662c-5.457,8.067-25.336,40.117-30.462,47.75c-5.21,7.763-10.257,15.893-15.407,23.717
							c-13.938,21.169-45.919,55.239-72.177,34.532c-3.57-2.814-6.229-6.334-9.475-9.452c-3.21-3.086-7.575-5.266-9.894-9.186
							C525.646,416.036,530.889,407.028,537.299,399.58z"/>
						<path style="fill:none;stroke:#6554BF;stroke-width:0.5;stroke-miterlimit:10;" d="M678.54,265.647
							c2.095,11.465,2.987,22.725-0.906,33.936c-3.917,11.279-9.354,22.138-15.727,32.235
							c-6.444,10.218-13.633,19.949-21.183,29.388c-6.293,7.863-17.963,17.581-22.054,25.486"/>
					</g>
					<g>
						<path style="fill:#212041;" d="M561.961,368.292c25.614-14.955,47-39.447,63.814-60.646
							c16.815-21.197,16.186-31.578,24.534-44.355c8.345-12.775,25.68-37.268,39.253-60.864
							c16.875-29.338,28.435-79.231,25.72-82.69c7.041,2.885,11.849,6.659,12.714,11.532c1.762,9.944-10.175,57.304-26.301,79.266
							c-16.122,21.964-30.906,48.087-39.25,60.865c-8.347,12.776-7.719,23.157-24.536,44.354
							c-16.814,21.201-38.199,45.691-63.814,60.648c-25.615,14.955-36.798,35.674-41.354,31.976
							c-1.779-1.442-3.199-8.08-4.813-12.908C532.471,391.559,546.992,377.035,561.961,368.292z"/>
						<path style="fill:#C956EE;" d="M570.415,373.331c26.241-15.179,48.135-40.044,65.35-61.569
							c17.218-21.526,16.566-32.073,25.107-45.048c8.545-12.975,23.674-39.506,40.179-61.811
							c15.189-20.523,27.045-68.874,25.021-77.899c0.511,1.077,2.669,2.404,2.893,5.629c0.495,7.065-9.983,55.368-26.108,77.333
							c-16.122,21.961-30.906,48.088-39.252,60.863c-8.347,12.779-7.721,23.156-24.532,44.355
							c-16.815,21.197-38.199,45.69-63.817,60.649c-25.614,14.957-36.798,35.672-41.352,31.976
							c-0.585-0.473-1.128-1.509-1.651-2.845C538.531,400.507,549.988,385.144,570.415,373.331z"/>
					</g>
					<g>
						<path style="fill:#212041;" d="M544.197,418.081c-8.257-2.987-16.705-4.436-25.502-6.607
							c-22.371-5.518-44.665-13.613-67.212-18.981c-17.33-4.124-52.646-14.115-66.105,1.403
							c-9.331,10.762-14.271,30.747,2.819,37.922c30.74,12.914,78.727,15.31,112.483,18.547c15.015,1.442,40.695,1.051,54.214-4.658
							L544.197,418.081z"/>
						<path style="fill:#C956EE;" d="M518.956,425.942c-24.108-5.686-48.145-13.95-72.437-19.482
							c-17.298-3.941-51.225-13.018-67.546-2.059c1.067-1.758,2.257-3.407,3.53-4.876c13.461-15.521,48.775-5.531,66.107-1.406
							c22.548,5.364,44.839,13.462,67.214,18.982c8.794,2.173,17.242,3.618,25.498,6.607l3.268,8.435
							C536.272,429.493,527.78,428.024,518.956,425.942z"/>
					</g>
					<g>
						<g>
							<path style="fill:#212041;" d="M540.613,393.678c-6.313-3.851-13.822-6.602-21.23-8.946
								c-8.027-2.543-16.254-4.654-24.536-6.452c-7.299-1.584-14.62-2.777-21.895-4.482c-4.26-0.999-8.525-2.011-12.828-2.854
								c-3.588-0.706-7.508-1.616-11.134-1.761c-1.699-0.068-3.37-0.006-5.032,0.113c0.972-4.02,3.547-7.87,6.796-9.682
								c5.597-3.122,21.747,0.343,29.433,2.119c12.298,2.843,24.456,6.683,36.558,10.134c5.627,1.605,21.222,5.85,23.376,7.225
								c6.866,4.396,9.032,14.849,7.382,21.237C546.303,397.915,543.813,395.629,540.613,393.678z"/>
							<path style="fill:#212041;" d="M448.369,368.8c8.044,0.326,16.726,2.783,24.591,4.629c7.295,1.71,14.638,2.895,21.959,4.494
								c8.297,1.813,16.565,3.902,24.604,6.47c8.732,2.79,25.852,8.669,27.995,16.148c-0.028,0.076-0.054,0.154-0.086,0.227
								c-3.576,8.781-12.499,10.185-25.387,6.343c-13.871-4.137-28.131-9.509-41.801-14.113
								c-10.024-3.375-28.852-8.095-34.703-15.504c-1.844-2.336-2.23-5.49-1.631-8.604
								C445.38,368.788,446.859,368.738,448.369,368.8z"/>
							<path style="fill:#00CFFF;" d="M491.371,367.631c-6.557-3.255-40.617-8.018-40.617-8.018s-2.554,2.037-4.3,4.166
								c4.289-0.916,36.673,6.523,42.361,7.796C495.896,373.16,497.927,370.888,491.371,367.631z"/>
						</g>
						<path style="fill:#212041;" d="M459.964,481.173c2.542-6.153,31.704-92.13,31.704-92.13l19.833,4.553
							c0,0-10.469,61.31-20.78,94.311C481.171,492.143,468.45,488.542,459.964,481.173z"/>
					</g>
				</g>
			</g>
		</g>
		<rect style="opacity:0.4;fill:#9657EC;" width="750" height="500"/>
	</g>
</g>
</svg>
